G04*
G04 #@! TF.GenerationSoftware,Altium Limited,Altium Designer,23.8.1 (32)*
G04*
G04 Layer_Color=32896*
%FSLAX44Y44*%
%MOMM*%
G71*
G04*
G04 #@! TF.SameCoordinates,938FBF38-D1D7-4F61-89A2-64852554DE34*
G04*
G04*
G04 #@! TF.FilePolarity,Positive*
G04*
G01*
G75*
%ADD12C,0.2540*%
D12*
X1669037Y354580D02*
X1671577Y357119D01*
X1676655D01*
X1679194Y354580D01*
Y344423D01*
X1676655Y341884D01*
X1671577D01*
X1669037Y344423D01*
X1663959Y341884D02*
X1658881D01*
X1661420D01*
Y357119D01*
X1663959Y354580D01*
X1641106Y357119D02*
X1651263D01*
Y349501D01*
X1646185Y352041D01*
X1643645D01*
X1641106Y349501D01*
Y344423D01*
X1643645Y341884D01*
X1648724D01*
X1651263Y344423D01*
X1625871Y357119D02*
X1630950Y354580D01*
X1636028Y349501D01*
Y344423D01*
X1633489Y341884D01*
X1628410D01*
X1625871Y344423D01*
Y346962D01*
X1628410Y349501D01*
X1636028D01*
X415801Y248662D02*
X418340Y251201D01*
X423419D01*
X425958Y248662D01*
Y238505D01*
X423419Y235966D01*
X418340D01*
X415801Y238505D01*
X410723Y235966D02*
X405645D01*
X408184D01*
Y251201D01*
X410723Y248662D01*
X387870Y251201D02*
X398027D01*
Y243584D01*
X392949Y246123D01*
X390410D01*
X387870Y243584D01*
Y238505D01*
X390410Y235966D01*
X395488D01*
X398027Y238505D01*
X382792Y251201D02*
X372635D01*
Y248662D01*
X382792Y238505D01*
Y235966D01*
X606047Y1402330D02*
X608587Y1404869D01*
X613665D01*
X616204Y1402330D01*
Y1392173D01*
X613665Y1389634D01*
X608587D01*
X606047Y1392173D01*
X600969Y1389634D02*
X595891D01*
X598430D01*
Y1404869D01*
X600969Y1402330D01*
X578116Y1404869D02*
X583195Y1402330D01*
X588273Y1397251D01*
Y1392173D01*
X585734Y1389634D01*
X580656D01*
X578116Y1392173D01*
Y1394712D01*
X580656Y1397251D01*
X588273D01*
X709679Y1402838D02*
X712218Y1405377D01*
X717297D01*
X719836Y1402838D01*
Y1392681D01*
X717297Y1390142D01*
X712218D01*
X709679Y1392681D01*
X704601Y1390142D02*
X699523D01*
X702062D01*
Y1405377D01*
X704601Y1402838D01*
X691905Y1405377D02*
X681748D01*
Y1402838D01*
X691905Y1392681D01*
Y1390142D01*
X1651257Y877058D02*
X1653797Y879597D01*
X1658875D01*
X1661414Y877058D01*
Y866901D01*
X1658875Y864362D01*
X1653797D01*
X1651257Y866901D01*
X1646179D02*
X1643640Y864362D01*
X1638561D01*
X1636022Y866901D01*
Y877058D01*
X1638561Y879597D01*
X1643640D01*
X1646179Y877058D01*
Y874519D01*
X1643640Y871980D01*
X1636022D01*
X1630944Y864362D02*
X1625865D01*
X1628405D01*
Y879597D01*
X1630944Y877058D01*
X1549911Y872486D02*
X1552451Y875025D01*
X1557529D01*
X1560068Y872486D01*
Y862329D01*
X1557529Y859790D01*
X1552451D01*
X1549911Y862329D01*
X1544833D02*
X1542294Y859790D01*
X1537215D01*
X1534676Y862329D01*
Y872486D01*
X1537215Y875025D01*
X1542294D01*
X1544833Y872486D01*
Y869947D01*
X1542294Y867408D01*
X1534676D01*
X1529598Y872486D02*
X1527059Y875025D01*
X1521980D01*
X1519441Y872486D01*
Y862329D01*
X1521980Y859790D01*
X1527059D01*
X1529598Y862329D01*
Y872486D01*
X1664973Y666492D02*
X1667513Y669031D01*
X1672591D01*
X1675130Y666492D01*
Y656335D01*
X1672591Y653796D01*
X1667513D01*
X1664973Y656335D01*
X1659895Y653796D02*
X1654817D01*
X1657356D01*
Y669031D01*
X1659895Y666492D01*
X1647199Y653796D02*
X1642121D01*
X1644660D01*
Y669031D01*
X1647199Y666492D01*
X1634503Y669031D02*
X1624346D01*
Y666492D01*
X1634503Y656335D01*
Y653796D01*
X1563373Y666492D02*
X1565912Y669031D01*
X1570991D01*
X1573530Y666492D01*
Y656335D01*
X1570991Y653796D01*
X1565912D01*
X1563373Y656335D01*
X1558295Y653796D02*
X1553217D01*
X1555756D01*
Y669031D01*
X1558295Y666492D01*
X1545599Y653796D02*
X1540521D01*
X1543060D01*
Y669031D01*
X1545599Y666492D01*
X1522746Y669031D02*
X1527825Y666492D01*
X1532903Y661413D01*
Y656335D01*
X1530364Y653796D01*
X1525286D01*
X1522746Y656335D01*
Y658874D01*
X1525286Y661413D01*
X1532903D01*
X1564389Y769108D02*
X1566929Y771647D01*
X1572007D01*
X1574546Y769108D01*
Y758951D01*
X1572007Y756412D01*
X1566929D01*
X1564389Y758951D01*
X1559311Y756412D02*
X1554233D01*
X1556772D01*
Y771647D01*
X1559311Y769108D01*
X1546615D02*
X1544076Y771647D01*
X1538997D01*
X1536458Y769108D01*
Y758951D01*
X1538997Y756412D01*
X1544076D01*
X1546615Y758951D01*
Y769108D01*
X1531380D02*
X1528841Y771647D01*
X1523762D01*
X1521223Y769108D01*
Y766569D01*
X1523762Y764029D01*
X1526302D01*
X1523762D01*
X1521223Y761490D01*
Y758951D01*
X1523762Y756412D01*
X1528841D01*
X1531380Y758951D01*
X1456185Y771648D02*
X1458725Y774187D01*
X1463803D01*
X1466342Y771648D01*
Y761491D01*
X1463803Y758952D01*
X1458725D01*
X1456185Y761491D01*
X1451107Y758952D02*
X1446029D01*
X1448568D01*
Y774187D01*
X1451107Y771648D01*
X1438411D02*
X1435872Y774187D01*
X1430793D01*
X1428254Y771648D01*
Y761491D01*
X1430793Y758952D01*
X1435872D01*
X1438411Y761491D01*
Y771648D01*
X1413019Y758952D02*
X1423176D01*
X1413019Y769109D01*
Y771648D01*
X1415558Y774187D01*
X1420637D01*
X1423176Y771648D01*
X1663449Y560066D02*
X1665988Y562605D01*
X1671067D01*
X1673606Y560066D01*
Y549909D01*
X1671067Y547370D01*
X1665988D01*
X1663449Y549909D01*
X1658371Y547370D02*
X1653293D01*
X1655832D01*
Y562605D01*
X1658371Y560066D01*
X1645675D02*
X1643136Y562605D01*
X1638058D01*
X1635518Y560066D01*
Y557527D01*
X1638058Y554987D01*
X1640597D01*
X1638058D01*
X1635518Y552448D01*
Y549909D01*
X1638058Y547370D01*
X1643136D01*
X1645675Y549909D01*
X1630440Y560066D02*
X1627901Y562605D01*
X1622822D01*
X1620283Y560066D01*
Y549909D01*
X1622822Y547370D01*
X1627901D01*
X1630440Y549909D01*
Y560066D01*
X1560579Y562098D02*
X1563118Y564637D01*
X1568197D01*
X1570736Y562098D01*
Y551941D01*
X1568197Y549402D01*
X1563118D01*
X1560579Y551941D01*
X1555501Y549402D02*
X1550423D01*
X1552962D01*
Y564637D01*
X1555501Y562098D01*
X1532648Y549402D02*
X1542805D01*
X1532648Y559559D01*
Y562098D01*
X1535188Y564637D01*
X1540266D01*
X1542805Y562098D01*
X1527570Y551941D02*
X1525031Y549402D01*
X1519952D01*
X1517413Y551941D01*
Y562098D01*
X1519952Y564637D01*
X1525031D01*
X1527570Y562098D01*
Y559559D01*
X1525031Y557020D01*
X1517413D01*
X1343917Y877058D02*
X1346456Y879597D01*
X1351535D01*
X1354074Y877058D01*
Y866901D01*
X1351535Y864362D01*
X1346456D01*
X1343917Y866901D01*
X1338839Y877058D02*
X1336300Y879597D01*
X1331221D01*
X1328682Y877058D01*
Y874519D01*
X1331221Y871980D01*
X1328682Y869440D01*
Y866901D01*
X1331221Y864362D01*
X1336300D01*
X1338839Y866901D01*
Y869440D01*
X1336300Y871980D01*
X1338839Y874519D01*
Y877058D01*
X1336300Y871980D02*
X1331221D01*
X1323604Y877058D02*
X1321065Y879597D01*
X1315986D01*
X1313447Y877058D01*
Y874519D01*
X1315986Y871980D01*
X1313447Y869440D01*
Y866901D01*
X1315986Y864362D01*
X1321065D01*
X1323604Y866901D01*
Y869440D01*
X1321065Y871980D01*
X1323604Y874519D01*
Y877058D01*
X1321065Y871980D02*
X1315986D01*
X1447549Y871724D02*
X1450089Y874263D01*
X1455167D01*
X1457706Y871724D01*
Y861567D01*
X1455167Y859028D01*
X1450089D01*
X1447549Y861567D01*
X1442471Y871724D02*
X1439932Y874263D01*
X1434853D01*
X1432314Y871724D01*
Y869185D01*
X1434853Y866646D01*
X1432314Y864106D01*
Y861567D01*
X1434853Y859028D01*
X1439932D01*
X1442471Y861567D01*
Y864106D01*
X1439932Y866646D01*
X1442471Y869185D01*
Y871724D01*
X1439932Y866646D02*
X1434853D01*
X1427236Y861567D02*
X1424697Y859028D01*
X1419618D01*
X1417079Y861567D01*
Y871724D01*
X1419618Y874263D01*
X1424697D01*
X1427236Y871724D01*
Y869185D01*
X1424697Y866646D01*
X1417079D01*
X1236221Y876042D02*
X1238761Y878581D01*
X1243839D01*
X1246378Y876042D01*
Y865885D01*
X1243839Y863346D01*
X1238761D01*
X1236221Y865885D01*
X1231143Y876042D02*
X1228604Y878581D01*
X1223525D01*
X1220986Y876042D01*
Y873503D01*
X1223525Y870964D01*
X1220986Y868424D01*
Y865885D01*
X1223525Y863346D01*
X1228604D01*
X1231143Y865885D01*
Y868424D01*
X1228604Y870964D01*
X1231143Y873503D01*
Y876042D01*
X1228604Y870964D02*
X1223525D01*
X1215908Y878581D02*
X1205751D01*
Y876042D01*
X1215908Y865885D01*
Y863346D01*
X1132081Y871724D02*
X1134621Y874263D01*
X1139699D01*
X1142238Y871724D01*
Y861567D01*
X1139699Y859028D01*
X1134621D01*
X1132081Y861567D01*
X1127003Y871724D02*
X1124464Y874263D01*
X1119385D01*
X1116846Y871724D01*
Y869185D01*
X1119385Y866646D01*
X1116846Y864106D01*
Y861567D01*
X1119385Y859028D01*
X1124464D01*
X1127003Y861567D01*
Y864106D01*
X1124464Y866646D01*
X1127003Y869185D01*
Y871724D01*
X1124464Y866646D02*
X1119385D01*
X1101611Y874263D02*
X1106690Y871724D01*
X1111768Y866646D01*
Y861567D01*
X1109229Y859028D01*
X1104150D01*
X1101611Y861567D01*
Y864106D01*
X1104150Y866646D01*
X1111768D01*
X1026671Y873502D02*
X1029211Y876041D01*
X1034289D01*
X1036828Y873502D01*
Y863345D01*
X1034289Y860806D01*
X1029211D01*
X1026671Y863345D01*
X1021593Y873502D02*
X1019054Y876041D01*
X1013975D01*
X1011436Y873502D01*
Y870963D01*
X1013975Y868423D01*
X1011436Y865884D01*
Y863345D01*
X1013975Y860806D01*
X1019054D01*
X1021593Y863345D01*
Y865884D01*
X1019054Y868423D01*
X1021593Y870963D01*
Y873502D01*
X1019054Y868423D02*
X1013975D01*
X996201Y876041D02*
X1006358D01*
Y868423D01*
X1001280Y870963D01*
X998740D01*
X996201Y868423D01*
Y863345D01*
X998740Y860806D01*
X1003819D01*
X1006358Y863345D01*
X925325Y875280D02*
X927865Y877819D01*
X932943D01*
X935482Y875280D01*
Y865123D01*
X932943Y862584D01*
X927865D01*
X925325Y865123D01*
X920247Y875280D02*
X917708Y877819D01*
X912629D01*
X910090Y875280D01*
Y872741D01*
X912629Y870201D01*
X910090Y867662D01*
Y865123D01*
X912629Y862584D01*
X917708D01*
X920247Y865123D01*
Y867662D01*
X917708Y870201D01*
X920247Y872741D01*
Y875280D01*
X917708Y870201D02*
X912629D01*
X897394Y862584D02*
Y877819D01*
X905012Y870201D01*
X894855D01*
X820677Y873502D02*
X823216Y876041D01*
X828295D01*
X830834Y873502D01*
Y863345D01*
X828295Y860806D01*
X823216D01*
X820677Y863345D01*
X815599Y873502D02*
X813060Y876041D01*
X807981D01*
X805442Y873502D01*
Y870963D01*
X807981Y868423D01*
X805442Y865884D01*
Y863345D01*
X807981Y860806D01*
X813060D01*
X815599Y863345D01*
Y865884D01*
X813060Y868423D01*
X815599Y870963D01*
Y873502D01*
X813060Y868423D02*
X807981D01*
X800364Y873502D02*
X797825Y876041D01*
X792746D01*
X790207Y873502D01*
Y870963D01*
X792746Y868423D01*
X795285D01*
X792746D01*
X790207Y865884D01*
Y863345D01*
X792746Y860806D01*
X797825D01*
X800364Y863345D01*
X506733Y769108D02*
X509272Y771647D01*
X514351D01*
X516890Y769108D01*
Y758951D01*
X514351Y756412D01*
X509272D01*
X506733Y758951D01*
X501655D02*
X499116Y756412D01*
X494037D01*
X491498Y758951D01*
Y769108D01*
X494037Y771647D01*
X499116D01*
X501655Y769108D01*
Y766569D01*
X499116Y764029D01*
X491498D01*
X486420Y769108D02*
X483881Y771647D01*
X478802D01*
X476263Y769108D01*
Y766569D01*
X478802Y764029D01*
X481342D01*
X478802D01*
X476263Y761490D01*
Y758951D01*
X478802Y756412D01*
X483881D01*
X486420Y758951D01*
X398783Y770378D02*
X401323Y772917D01*
X406401D01*
X408940Y770378D01*
Y760221D01*
X406401Y757682D01*
X401323D01*
X398783Y760221D01*
X393705D02*
X391166Y757682D01*
X386087D01*
X383548Y760221D01*
Y770378D01*
X386087Y772917D01*
X391166D01*
X393705Y770378D01*
Y767839D01*
X391166Y765300D01*
X383548D01*
X368313Y757682D02*
X378470D01*
X368313Y767839D01*
Y770378D01*
X370852Y772917D01*
X375931D01*
X378470Y770378D01*
X503939Y1293618D02*
X506479Y1296157D01*
X511557D01*
X514096Y1293618D01*
Y1283461D01*
X511557Y1280922D01*
X506479D01*
X503939Y1283461D01*
X488704Y1280922D02*
X498861D01*
X488704Y1291079D01*
Y1293618D01*
X491243Y1296157D01*
X496322D01*
X498861Y1293618D01*
X483626D02*
X481087Y1296157D01*
X476008D01*
X473469Y1293618D01*
Y1291079D01*
X476008Y1288539D01*
X473469Y1286000D01*
Y1283461D01*
X476008Y1280922D01*
X481087D01*
X483626Y1283461D01*
Y1286000D01*
X481087Y1288539D01*
X483626Y1291079D01*
Y1293618D01*
X481087Y1288539D02*
X476008D01*
X504193Y1086354D02*
X506732Y1088893D01*
X511811D01*
X514350Y1086354D01*
Y1076197D01*
X511811Y1073658D01*
X506732D01*
X504193Y1076197D01*
X488958Y1088893D02*
X499115D01*
Y1081275D01*
X494037Y1083815D01*
X491497D01*
X488958Y1081275D01*
Y1076197D01*
X491497Y1073658D01*
X496576D01*
X499115Y1076197D01*
X476262Y1073658D02*
Y1088893D01*
X483880Y1081275D01*
X473723D01*
X504955Y980690D02*
X507495Y983229D01*
X512573D01*
X515112Y980690D01*
Y970533D01*
X512573Y967994D01*
X507495D01*
X504955Y970533D01*
X489720Y983229D02*
X494799Y980690D01*
X499877Y975611D01*
Y970533D01*
X497338Y967994D01*
X492259D01*
X489720Y970533D01*
Y973072D01*
X492259Y975611D01*
X499877D01*
X484642Y983229D02*
X474485D01*
Y980690D01*
X484642Y970533D01*
Y967994D01*
X398275Y878836D02*
X400815Y881375D01*
X405893D01*
X408432Y878836D01*
Y868679D01*
X405893Y866140D01*
X400815D01*
X398275Y868679D01*
X393197Y881375D02*
X383040D01*
Y878836D01*
X393197Y868679D01*
Y866140D01*
X377962Y868679D02*
X375423Y866140D01*
X370344D01*
X367805Y868679D01*
Y878836D01*
X370344Y881375D01*
X375423D01*
X377962Y878836D01*
Y876297D01*
X375423Y873757D01*
X367805D01*
X507749Y876550D02*
X510289Y879089D01*
X515367D01*
X517906Y876550D01*
Y866393D01*
X515367Y863854D01*
X510289D01*
X507749Y866393D01*
X502671Y876550D02*
X500132Y879089D01*
X495053D01*
X492514Y876550D01*
Y874011D01*
X495053Y871471D01*
X492514Y868932D01*
Y866393D01*
X495053Y863854D01*
X500132D01*
X502671Y866393D01*
Y868932D01*
X500132Y871471D01*
X502671Y874011D01*
Y876550D01*
X500132Y871471D02*
X495053D01*
X487436Y876550D02*
X484897Y879089D01*
X479818D01*
X477279Y876550D01*
Y866393D01*
X479818Y863854D01*
X484897D01*
X487436Y866393D01*
Y876550D01*
X528831Y1401060D02*
X531371Y1403599D01*
X536449D01*
X538988Y1401060D01*
Y1390903D01*
X536449Y1388364D01*
X531371D01*
X528831Y1390903D01*
X523753Y1388364D02*
X518675D01*
X521214D01*
Y1403599D01*
X523753Y1401060D01*
X500900Y1403599D02*
X511057D01*
Y1395981D01*
X505979Y1398521D01*
X503439D01*
X500900Y1395981D01*
Y1390903D01*
X503439Y1388364D01*
X508518D01*
X511057Y1390903D01*
X485665Y1401060D02*
X488204Y1403599D01*
X493283D01*
X495822Y1401060D01*
Y1390903D01*
X493283Y1388364D01*
X488204D01*
X485665Y1390903D01*
X480587Y1401060D02*
X478048Y1403599D01*
X472969D01*
X470430Y1401060D01*
Y1398521D01*
X475508Y1393442D01*
Y1390903D02*
Y1388364D01*
X500637Y1194050D02*
X503176Y1196589D01*
X508255D01*
X510794Y1194050D01*
Y1183893D01*
X508255Y1181354D01*
X503176D01*
X500637Y1183893D01*
X487941Y1181354D02*
Y1196589D01*
X495559Y1188971D01*
X485402D01*
X480324Y1181354D02*
X475246D01*
X477785D01*
Y1196589D01*
X480324Y1194050D01*
X402847Y1191256D02*
X405387Y1193795D01*
X410465D01*
X413004Y1191256D01*
Y1181099D01*
X410465Y1178560D01*
X405387D01*
X402847Y1181099D01*
X390151Y1178560D02*
Y1193795D01*
X397769Y1186178D01*
X387612D01*
X382534Y1191256D02*
X379995Y1193795D01*
X374916D01*
X372377Y1191256D01*
Y1181099D01*
X374916Y1178560D01*
X379995D01*
X382534Y1181099D01*
Y1191256D01*
X729491Y666492D02*
X732030Y669031D01*
X737109D01*
X739648Y666492D01*
Y656335D01*
X737109Y653796D01*
X732030D01*
X729491Y656335D01*
X724413Y653796D02*
X719335D01*
X721874D01*
Y669031D01*
X724413Y666492D01*
X711717D02*
X709178Y669031D01*
X704100D01*
X701560Y666492D01*
Y656335D01*
X704100Y653796D01*
X709178D01*
X711717Y656335D01*
Y666492D01*
X696482D02*
X693943Y669031D01*
X688864D01*
X686325Y666492D01*
Y663953D01*
X688864Y661413D01*
X686325Y658874D01*
Y656335D01*
X688864Y653796D01*
X693943D01*
X696482Y656335D01*
Y658874D01*
X693943Y661413D01*
X696482Y663953D01*
Y666492D01*
X693943Y661413D02*
X688864D01*
X1354585Y664460D02*
X1357124Y666999D01*
X1362203D01*
X1364742Y664460D01*
Y654303D01*
X1362203Y651764D01*
X1357124D01*
X1354585Y654303D01*
X1349507Y651764D02*
X1344429D01*
X1346968D01*
Y666999D01*
X1349507Y664460D01*
X1336811Y651764D02*
X1331733D01*
X1334272D01*
Y666999D01*
X1336811Y664460D01*
X1316498Y651764D02*
Y666999D01*
X1324115Y659381D01*
X1313958D01*
X1245873Y665476D02*
X1248412Y668015D01*
X1253491D01*
X1256030Y665476D01*
Y655319D01*
X1253491Y652780D01*
X1248412D01*
X1245873Y655319D01*
X1240795Y652780D02*
X1235717D01*
X1238256D01*
Y668015D01*
X1240795Y665476D01*
X1228099Y652780D02*
X1223021D01*
X1225560D01*
Y668015D01*
X1228099Y665476D01*
X1215403D02*
X1212864Y668015D01*
X1207786D01*
X1205246Y665476D01*
Y662937D01*
X1207786Y660397D01*
X1210325D01*
X1207786D01*
X1205246Y657858D01*
Y655319D01*
X1207786Y652780D01*
X1212864D01*
X1215403Y655319D01*
X624335Y666746D02*
X626875Y669285D01*
X631953D01*
X634492Y666746D01*
Y656589D01*
X631953Y654050D01*
X626875D01*
X624335Y656589D01*
X619257Y654050D02*
X614179D01*
X616718D01*
Y669285D01*
X619257Y666746D01*
X606561D02*
X604022Y669285D01*
X598943D01*
X596404Y666746D01*
Y656589D01*
X598943Y654050D01*
X604022D01*
X606561Y656589D01*
Y666746D01*
X591326Y669285D02*
X581169D01*
Y666746D01*
X591326Y656589D01*
Y654050D01*
X1457201Y664460D02*
X1459740Y666999D01*
X1464819D01*
X1467358Y664460D01*
Y654303D01*
X1464819Y651764D01*
X1459740D01*
X1457201Y654303D01*
X1452123Y651764D02*
X1447045D01*
X1449584D01*
Y666999D01*
X1452123Y664460D01*
X1439427Y651764D02*
X1434349D01*
X1436888D01*
Y666999D01*
X1439427Y664460D01*
X1416574Y666999D02*
X1426731D01*
Y659381D01*
X1421653Y661921D01*
X1419114D01*
X1416574Y659381D01*
Y654303D01*
X1419114Y651764D01*
X1424192D01*
X1426731Y654303D01*
X1665735Y770124D02*
X1668275Y772663D01*
X1673353D01*
X1675892Y770124D01*
Y759967D01*
X1673353Y757428D01*
X1668275D01*
X1665735Y759967D01*
X1660657Y757428D02*
X1655579D01*
X1658118D01*
Y772663D01*
X1660657Y770124D01*
X1647961D02*
X1645422Y772663D01*
X1640343D01*
X1637804Y770124D01*
Y759967D01*
X1640343Y757428D01*
X1645422D01*
X1647961Y759967D01*
Y770124D01*
X1625108Y757428D02*
Y772663D01*
X1632726Y765045D01*
X1622569D01*
X1349251Y770124D02*
X1351790Y772663D01*
X1356869D01*
X1359408Y770124D01*
Y759967D01*
X1356869Y757428D01*
X1351790D01*
X1349251Y759967D01*
X1344173Y757428D02*
X1339095D01*
X1341634D01*
Y772663D01*
X1344173Y770124D01*
X1331477D02*
X1328938Y772663D01*
X1323860D01*
X1321320Y770124D01*
Y759967D01*
X1323860Y757428D01*
X1328938D01*
X1331477Y759967D01*
Y770124D01*
X1316242Y757428D02*
X1311164D01*
X1313703D01*
Y772663D01*
X1316242Y770124D01*
X1028957Y772664D02*
X1031497Y775203D01*
X1036575D01*
X1039114Y772664D01*
Y762507D01*
X1036575Y759968D01*
X1031497D01*
X1028957Y762507D01*
X1023879D02*
X1021340Y759968D01*
X1016261D01*
X1013722Y762507D01*
Y772664D01*
X1016261Y775203D01*
X1021340D01*
X1023879Y772664D01*
Y770125D01*
X1021340Y767586D01*
X1013722D01*
X1008644Y772664D02*
X1006105Y775203D01*
X1001026D01*
X998487Y772664D01*
Y770125D01*
X1001026Y767586D01*
X998487Y765046D01*
Y762507D01*
X1001026Y759968D01*
X1006105D01*
X1008644Y762507D01*
Y765046D01*
X1006105Y767586D01*
X1008644Y770125D01*
Y772664D01*
X1006105Y767586D02*
X1001026D01*
X923293Y766314D02*
X925833Y768853D01*
X930911D01*
X933450Y766314D01*
Y756157D01*
X930911Y753618D01*
X925833D01*
X923293Y756157D01*
X918215D02*
X915676Y753618D01*
X910597D01*
X908058Y756157D01*
Y766314D01*
X910597Y768853D01*
X915676D01*
X918215Y766314D01*
Y763775D01*
X915676Y761236D01*
X908058D01*
X902980Y768853D02*
X892823D01*
Y766314D01*
X902980Y756157D01*
Y753618D01*
X1252223Y770886D02*
X1254762Y773425D01*
X1259841D01*
X1262380Y770886D01*
Y760729D01*
X1259841Y758190D01*
X1254762D01*
X1252223Y760729D01*
X1247145Y758190D02*
X1242067D01*
X1244606D01*
Y773425D01*
X1247145Y770886D01*
X1234449D02*
X1231910Y773425D01*
X1226832D01*
X1224292Y770886D01*
Y760729D01*
X1226832Y758190D01*
X1231910D01*
X1234449Y760729D01*
Y770886D01*
X1219214D02*
X1216675Y773425D01*
X1211596D01*
X1209057Y770886D01*
Y760729D01*
X1211596Y758190D01*
X1216675D01*
X1219214Y760729D01*
Y770886D01*
X1131065Y769870D02*
X1133605Y772409D01*
X1138683D01*
X1141222Y769870D01*
Y759713D01*
X1138683Y757174D01*
X1133605D01*
X1131065Y759713D01*
X1125987D02*
X1123448Y757174D01*
X1118369D01*
X1115830Y759713D01*
Y769870D01*
X1118369Y772409D01*
X1123448D01*
X1125987Y769870D01*
Y767331D01*
X1123448Y764791D01*
X1115830D01*
X1110752Y759713D02*
X1108213Y757174D01*
X1103134D01*
X1100595Y759713D01*
Y769870D01*
X1103134Y772409D01*
X1108213D01*
X1110752Y769870D01*
Y767331D01*
X1108213Y764791D01*
X1100595D01*
X612397Y771648D02*
X614936Y774187D01*
X620015D01*
X622554Y771648D01*
Y761491D01*
X620015Y758952D01*
X614936D01*
X612397Y761491D01*
X607319D02*
X604780Y758952D01*
X599701D01*
X597162Y761491D01*
Y771648D01*
X599701Y774187D01*
X604780D01*
X607319Y771648D01*
Y769109D01*
X604780Y766570D01*
X597162D01*
X584466Y758952D02*
Y774187D01*
X592084Y766570D01*
X581927D01*
X716537Y773426D02*
X719077Y775965D01*
X724155D01*
X726694Y773426D01*
Y763269D01*
X724155Y760730D01*
X719077D01*
X716537Y763269D01*
X711459D02*
X708920Y760730D01*
X703841D01*
X701302Y763269D01*
Y773426D01*
X703841Y775965D01*
X708920D01*
X711459Y773426D01*
Y770887D01*
X708920Y768347D01*
X701302D01*
X686067Y775965D02*
X696224D01*
Y768347D01*
X691145Y770887D01*
X688606D01*
X686067Y768347D01*
Y763269D01*
X688606Y760730D01*
X693685D01*
X696224Y763269D01*
X820169Y768092D02*
X822709Y770631D01*
X827787D01*
X830326Y768092D01*
Y757935D01*
X827787Y755396D01*
X822709D01*
X820169Y757935D01*
X815091D02*
X812552Y755396D01*
X807473D01*
X804934Y757935D01*
Y768092D01*
X807473Y770631D01*
X812552D01*
X815091Y768092D01*
Y765553D01*
X812552Y763014D01*
X804934D01*
X789699Y770631D02*
X794778Y768092D01*
X799856Y763014D01*
Y757935D01*
X797317Y755396D01*
X792238D01*
X789699Y757935D01*
Y760474D01*
X792238Y763014D01*
X799856D01*
X730253Y455672D02*
X732793Y458211D01*
X737871D01*
X740410Y455672D01*
Y445515D01*
X737871Y442976D01*
X732793D01*
X730253Y445515D01*
X725175Y442976D02*
X720097D01*
X722636D01*
Y458211D01*
X725175Y455672D01*
X712479D02*
X709940Y458211D01*
X704862D01*
X702322Y455672D01*
Y453133D01*
X704862Y450593D01*
X707401D01*
X704862D01*
X702322Y448054D01*
Y445515D01*
X704862Y442976D01*
X709940D01*
X712479Y445515D01*
X689626Y442976D02*
Y458211D01*
X697244Y450593D01*
X687087D01*
X624335Y455672D02*
X626875Y458211D01*
X631953D01*
X634492Y455672D01*
Y445515D01*
X631953Y442976D01*
X626875D01*
X624335Y445515D01*
X619257Y442976D02*
X614179D01*
X616718D01*
Y458211D01*
X619257Y455672D01*
X606561D02*
X604022Y458211D01*
X598943D01*
X596404Y455672D01*
Y453133D01*
X598943Y450593D01*
X601483D01*
X598943D01*
X596404Y448054D01*
Y445515D01*
X598943Y442976D01*
X604022D01*
X606561Y445515D01*
X591326Y455672D02*
X588787Y458211D01*
X583708D01*
X581169Y455672D01*
Y453133D01*
X583708Y450593D01*
X586248D01*
X583708D01*
X581169Y448054D01*
Y445515D01*
X583708Y442976D01*
X588787D01*
X591326Y445515D01*
X1457455Y560066D02*
X1459995Y562605D01*
X1465073D01*
X1467612Y560066D01*
Y549909D01*
X1465073Y547370D01*
X1459995D01*
X1457455Y549909D01*
X1452377Y547370D02*
X1447299D01*
X1449838D01*
Y562605D01*
X1452377Y560066D01*
X1429524Y547370D02*
X1439681D01*
X1429524Y557527D01*
Y560066D01*
X1432063Y562605D01*
X1437142D01*
X1439681Y560066D01*
X1424446D02*
X1421907Y562605D01*
X1416828D01*
X1414289Y560066D01*
Y557527D01*
X1416828Y554987D01*
X1414289Y552448D01*
Y549909D01*
X1416828Y547370D01*
X1421907D01*
X1424446Y549909D01*
Y552448D01*
X1421907Y554987D01*
X1424446Y557527D01*
Y560066D01*
X1421907Y554987D02*
X1416828D01*
X1250953Y557526D02*
X1253493Y560065D01*
X1258571D01*
X1261110Y557526D01*
Y547369D01*
X1258571Y544830D01*
X1253493D01*
X1250953Y547369D01*
X1245875Y544830D02*
X1240797D01*
X1243336D01*
Y560065D01*
X1245875Y557526D01*
X1223022Y544830D02*
X1233179D01*
X1223022Y554987D01*
Y557526D01*
X1225562Y560065D01*
X1230640D01*
X1233179Y557526D01*
X1207787Y560065D02*
X1212866Y557526D01*
X1217944Y552448D01*
Y547369D01*
X1215405Y544830D01*
X1210326D01*
X1207787Y547369D01*
Y549908D01*
X1210326Y552448D01*
X1217944D01*
X1144781Y558288D02*
X1147320Y560827D01*
X1152399D01*
X1154938Y558288D01*
Y548131D01*
X1152399Y545592D01*
X1147320D01*
X1144781Y548131D01*
X1139703Y545592D02*
X1134625D01*
X1137164D01*
Y560827D01*
X1139703Y558288D01*
X1116850Y545592D02*
X1127007D01*
X1116850Y555749D01*
Y558288D01*
X1119389Y560827D01*
X1124468D01*
X1127007Y558288D01*
X1101615Y560827D02*
X1111772D01*
Y553209D01*
X1106694Y555749D01*
X1104154D01*
X1101615Y553209D01*
Y548131D01*
X1104154Y545592D01*
X1109233D01*
X1111772Y548131D01*
X1143511Y666492D02*
X1146050Y669031D01*
X1151129D01*
X1153668Y666492D01*
Y656335D01*
X1151129Y653796D01*
X1146050D01*
X1143511Y656335D01*
X1138433Y653796D02*
X1133355D01*
X1135894D01*
Y669031D01*
X1138433Y666492D01*
X1125737Y653796D02*
X1120659D01*
X1123198D01*
Y669031D01*
X1125737Y666492D01*
X1102884Y653796D02*
X1113041D01*
X1102884Y663953D01*
Y666492D01*
X1105424Y669031D01*
X1110502D01*
X1113041Y666492D01*
X1355347Y560574D02*
X1357887Y563113D01*
X1362965D01*
X1365504Y560574D01*
Y550417D01*
X1362965Y547878D01*
X1357887D01*
X1355347Y550417D01*
X1350269Y547878D02*
X1345191D01*
X1347730D01*
Y563113D01*
X1350269Y560574D01*
X1327416Y547878D02*
X1337573D01*
X1327416Y558035D01*
Y560574D01*
X1329955Y563113D01*
X1335034D01*
X1337573Y560574D01*
X1322338Y563113D02*
X1312181D01*
Y560574D01*
X1322338Y550417D01*
Y547878D01*
X1034799Y665476D02*
X1037338Y668015D01*
X1042417D01*
X1044956Y665476D01*
Y655319D01*
X1042417Y652780D01*
X1037338D01*
X1034799Y655319D01*
X1029721Y652780D02*
X1024643D01*
X1027182D01*
Y668015D01*
X1029721Y665476D01*
X1017025Y652780D02*
X1011947D01*
X1014486D01*
Y668015D01*
X1017025Y665476D01*
X1004329Y652780D02*
X999251D01*
X1001790D01*
Y668015D01*
X1004329Y665476D01*
X1039117Y557526D02*
X1041656Y560065D01*
X1046735D01*
X1049274Y557526D01*
Y547369D01*
X1046735Y544830D01*
X1041656D01*
X1039117Y547369D01*
X1034039Y544830D02*
X1028961D01*
X1031500D01*
Y560065D01*
X1034039Y557526D01*
X1011186Y544830D02*
X1021343D01*
X1011186Y554987D01*
Y557526D01*
X1013726Y560065D01*
X1018804D01*
X1021343Y557526D01*
X998490Y544830D02*
Y560065D01*
X1006108Y552448D01*
X995951D01*
X935739Y558796D02*
X938279Y561335D01*
X943357D01*
X945896Y558796D01*
Y548639D01*
X943357Y546100D01*
X938279D01*
X935739Y548639D01*
X930661Y546100D02*
X925583D01*
X928122D01*
Y561335D01*
X930661Y558796D01*
X907808Y546100D02*
X917965D01*
X907808Y556257D01*
Y558796D01*
X910348Y561335D01*
X915426D01*
X917965Y558796D01*
X902730D02*
X900191Y561335D01*
X895112D01*
X892573Y558796D01*
Y556257D01*
X895112Y553717D01*
X897652D01*
X895112D01*
X892573Y551178D01*
Y548639D01*
X895112Y546100D01*
X900191D01*
X902730Y548639D01*
X621541Y561844D02*
X624081Y564383D01*
X629159D01*
X631698Y561844D01*
Y551687D01*
X629159Y549148D01*
X624081D01*
X621541Y551687D01*
X616463Y549148D02*
X611385D01*
X613924D01*
Y564383D01*
X616463Y561844D01*
X593610Y549148D02*
X603767D01*
X593610Y559305D01*
Y561844D01*
X596149Y564383D01*
X601228D01*
X603767Y561844D01*
X588532D02*
X585993Y564383D01*
X580914D01*
X578375Y561844D01*
Y551687D01*
X580914Y549148D01*
X585993D01*
X588532Y551687D01*
Y561844D01*
X835917Y562098D02*
X838456Y564637D01*
X843535D01*
X846074Y562098D01*
Y551941D01*
X843535Y549402D01*
X838456D01*
X835917Y551941D01*
X830839Y549402D02*
X825761D01*
X828300D01*
Y564637D01*
X830839Y562098D01*
X807986Y549402D02*
X818143D01*
X807986Y559559D01*
Y562098D01*
X810526Y564637D01*
X815604D01*
X818143Y562098D01*
X792751Y549402D02*
X802908D01*
X792751Y559559D01*
Y562098D01*
X795290Y564637D01*
X800369D01*
X802908Y562098D01*
X937517Y664714D02*
X940057Y667253D01*
X945135D01*
X947674Y664714D01*
Y654557D01*
X945135Y652018D01*
X940057D01*
X937517Y654557D01*
X932439Y652018D02*
X927361D01*
X929900D01*
Y667253D01*
X932439Y664714D01*
X919743Y652018D02*
X914665D01*
X917204D01*
Y667253D01*
X919743Y664714D01*
X907047D02*
X904508Y667253D01*
X899430D01*
X896890Y664714D01*
Y654557D01*
X899430Y652018D01*
X904508D01*
X907047Y654557D01*
Y664714D01*
X835409Y666492D02*
X837949Y669031D01*
X843027D01*
X845566Y666492D01*
Y656335D01*
X843027Y653796D01*
X837949D01*
X835409Y656335D01*
X830331Y653796D02*
X825253D01*
X827792D01*
Y669031D01*
X830331Y666492D01*
X817635D02*
X815096Y669031D01*
X810017D01*
X807478Y666492D01*
Y656335D01*
X810017Y653796D01*
X815096D01*
X817635Y656335D01*
Y666492D01*
X802400Y656335D02*
X799861Y653796D01*
X794782D01*
X792243Y656335D01*
Y666492D01*
X794782Y669031D01*
X799861D01*
X802400Y666492D01*
Y663953D01*
X799861Y661413D01*
X792243D01*
X832107Y455418D02*
X834647Y457957D01*
X839725D01*
X842264Y455418D01*
Y445261D01*
X839725Y442722D01*
X834647D01*
X832107Y445261D01*
X827029Y442722D02*
X821951D01*
X824490D01*
Y457957D01*
X827029Y455418D01*
X814333D02*
X811794Y457957D01*
X806715D01*
X804176Y455418D01*
Y452879D01*
X806715Y450340D01*
X809255D01*
X806715D01*
X804176Y447800D01*
Y445261D01*
X806715Y442722D01*
X811794D01*
X814333Y445261D01*
X788941Y457957D02*
X799098D01*
Y450340D01*
X794020Y452879D01*
X791480D01*
X788941Y450340D01*
Y445261D01*
X791480Y442722D01*
X796559D01*
X799098Y445261D01*
X723903Y560828D02*
X726442Y563367D01*
X731521D01*
X734060Y560828D01*
Y550671D01*
X731521Y548132D01*
X726442D01*
X723903Y550671D01*
X718825Y548132D02*
X713747D01*
X716286D01*
Y563367D01*
X718825Y560828D01*
X695972Y548132D02*
X706129D01*
X695972Y558289D01*
Y560828D01*
X698512Y563367D01*
X703590D01*
X706129Y560828D01*
X690894Y548132D02*
X685816D01*
X688355D01*
Y563367D01*
X690894Y560828D01*
X937263Y454910D02*
X939802Y457449D01*
X944881D01*
X947420Y454910D01*
Y444753D01*
X944881Y442214D01*
X939802D01*
X937263Y444753D01*
X932185Y442214D02*
X927107D01*
X929646D01*
Y457449D01*
X932185Y454910D01*
X919489D02*
X916950Y457449D01*
X911871D01*
X909332Y454910D01*
Y452371D01*
X911871Y449832D01*
X914411D01*
X911871D01*
X909332Y447292D01*
Y444753D01*
X911871Y442214D01*
X916950D01*
X919489Y444753D01*
X894097Y457449D02*
X899176Y454910D01*
X904254Y449832D01*
Y444753D01*
X901715Y442214D01*
X896636D01*
X894097Y444753D01*
Y447292D01*
X896636Y449832D01*
X904254D01*
X1042165Y456180D02*
X1044705Y458719D01*
X1049783D01*
X1052322Y456180D01*
Y446023D01*
X1049783Y443484D01*
X1044705D01*
X1042165Y446023D01*
X1037087Y443484D02*
X1032009D01*
X1034548D01*
Y458719D01*
X1037087Y456180D01*
X1024391D02*
X1021852Y458719D01*
X1016774D01*
X1014234Y456180D01*
Y453641D01*
X1016774Y451101D01*
X1019313D01*
X1016774D01*
X1014234Y448562D01*
Y446023D01*
X1016774Y443484D01*
X1021852D01*
X1024391Y446023D01*
X1009156Y458719D02*
X998999D01*
Y456180D01*
X1009156Y446023D01*
Y443484D01*
X408689Y560574D02*
X411228Y563113D01*
X416307D01*
X418846Y560574D01*
Y550417D01*
X416307Y547878D01*
X411228D01*
X408689Y550417D01*
X403611Y547878D02*
X398533D01*
X401072D01*
Y563113D01*
X403611Y560574D01*
X390915Y547878D02*
X385837D01*
X388376D01*
Y563113D01*
X390915Y560574D01*
X378219D02*
X375680Y563113D01*
X370602D01*
X368062Y560574D01*
Y558035D01*
X370602Y555495D01*
X368062Y552956D01*
Y550417D01*
X370602Y547878D01*
X375680D01*
X378219Y550417D01*
Y552956D01*
X375680Y555495D01*
X378219Y558035D01*
Y560574D01*
X375680Y555495D02*
X370602D01*
X410467Y665476D02*
X413007Y668015D01*
X418085D01*
X420624Y665476D01*
Y655319D01*
X418085Y652780D01*
X413007D01*
X410467Y655319D01*
X405389Y652780D02*
X400311D01*
X402850D01*
Y668015D01*
X405389Y665476D01*
X392693D02*
X390154Y668015D01*
X385075D01*
X382536Y665476D01*
Y655319D01*
X385075Y652780D01*
X390154D01*
X392693Y655319D01*
Y665476D01*
X367301Y668015D02*
X377458D01*
Y660397D01*
X372380Y662937D01*
X369840D01*
X367301Y660397D01*
Y655319D01*
X369840Y652780D01*
X374919D01*
X377458Y655319D01*
X416309Y351786D02*
X418848Y354325D01*
X423927D01*
X426466Y351786D01*
Y341629D01*
X423927Y339090D01*
X418848D01*
X416309Y341629D01*
X411231Y339090D02*
X406153D01*
X408692D01*
Y354325D01*
X411231Y351786D01*
X390918Y339090D02*
Y354325D01*
X398535Y346707D01*
X388378D01*
X375682Y339090D02*
Y354325D01*
X383300Y346707D01*
X373143D01*
X518417Y350516D02*
X520956Y353055D01*
X526035D01*
X528574Y350516D01*
Y340359D01*
X526035Y337820D01*
X520956D01*
X518417Y340359D01*
X513339Y337820D02*
X508261D01*
X510800D01*
Y353055D01*
X513339Y350516D01*
X493026Y337820D02*
Y353055D01*
X500643Y345438D01*
X490486D01*
X475251Y353055D02*
X485408D01*
Y345438D01*
X480330Y347977D01*
X477790D01*
X475251Y345438D01*
Y340359D01*
X477790Y337820D01*
X482869D01*
X485408Y340359D01*
X413261Y456688D02*
X415801Y459227D01*
X420879D01*
X423418Y456688D01*
Y446531D01*
X420879Y443992D01*
X415801D01*
X413261Y446531D01*
X408183Y443992D02*
X403105D01*
X405644D01*
Y459227D01*
X408183Y456688D01*
X395487D02*
X392948Y459227D01*
X387869D01*
X385330Y456688D01*
Y454149D01*
X387869Y451609D01*
X390409D01*
X387869D01*
X385330Y449070D01*
Y446531D01*
X387869Y443992D01*
X392948D01*
X395487Y446531D01*
X380252Y443992D02*
X375174D01*
X377713D01*
Y459227D01*
X380252Y456688D01*
X519941Y456942D02*
X522481Y459481D01*
X527559D01*
X530098Y456942D01*
Y446785D01*
X527559Y444246D01*
X522481D01*
X519941Y446785D01*
X514863Y444246D02*
X509785D01*
X512324D01*
Y459481D01*
X514863Y456942D01*
X502167D02*
X499628Y459481D01*
X494549D01*
X492010Y456942D01*
Y454403D01*
X494549Y451864D01*
X497089D01*
X494549D01*
X492010Y449324D01*
Y446785D01*
X494549Y444246D01*
X499628D01*
X502167Y446785D01*
X476775Y444246D02*
X486932D01*
X476775Y454403D01*
Y456942D01*
X479314Y459481D01*
X484393D01*
X486932Y456942D01*
X401323Y978150D02*
X403862Y980689D01*
X408941D01*
X411480Y978150D01*
Y967993D01*
X408941Y965454D01*
X403862D01*
X401323Y967993D01*
X386088Y980689D02*
X391167Y978150D01*
X396245Y973072D01*
Y967993D01*
X393706Y965454D01*
X388627D01*
X386088Y967993D01*
Y970532D01*
X388627Y973072D01*
X396245D01*
X370853Y980689D02*
X375932Y978150D01*
X381010Y973072D01*
Y967993D01*
X378471Y965454D01*
X373392D01*
X370853Y967993D01*
Y970532D01*
X373392Y973072D01*
X381010D01*
X518163Y244090D02*
X520703Y246629D01*
X525781D01*
X528320Y244090D01*
Y233933D01*
X525781Y231394D01*
X520703D01*
X518163Y233933D01*
X513085Y231394D02*
X508007D01*
X510546D01*
Y246629D01*
X513085Y244090D01*
X490232Y246629D02*
X500389D01*
Y239011D01*
X495311Y241551D01*
X492771D01*
X490232Y239011D01*
Y233933D01*
X492771Y231394D01*
X497850D01*
X500389Y233933D01*
X485154Y244090D02*
X482615Y246629D01*
X477536D01*
X474997Y244090D01*
Y241551D01*
X477536Y239011D01*
X474997Y236472D01*
Y233933D01*
X477536Y231394D01*
X482615D01*
X485154Y233933D01*
Y236472D01*
X482615Y239011D01*
X485154Y241551D01*
Y244090D01*
X482615Y239011D02*
X477536D01*
X397005Y1081528D02*
X399544Y1084067D01*
X404623D01*
X407162Y1081528D01*
Y1071371D01*
X404623Y1068832D01*
X399544D01*
X397005Y1071371D01*
X381770Y1084067D02*
X391927D01*
Y1076450D01*
X386849Y1078989D01*
X384309D01*
X381770Y1076450D01*
Y1071371D01*
X384309Y1068832D01*
X389388D01*
X391927Y1071371D01*
X376692Y1081528D02*
X374153Y1084067D01*
X369074D01*
X366535Y1081528D01*
Y1078989D01*
X369074Y1076450D01*
X371614D01*
X369074D01*
X366535Y1073910D01*
Y1071371D01*
X369074Y1068832D01*
X374153D01*
X376692Y1071371D01*
X394973Y1401568D02*
X397513Y1404107D01*
X402591D01*
X405130Y1401568D01*
Y1391411D01*
X402591Y1388872D01*
X397513D01*
X394973Y1391411D01*
X389895Y1388872D02*
X384817D01*
X387356D01*
Y1404107D01*
X389895Y1401568D01*
X369581Y1388872D02*
Y1404107D01*
X377199Y1396490D01*
X367042D01*
X401323Y1294380D02*
X403862Y1296919D01*
X408941D01*
X411480Y1294380D01*
Y1284223D01*
X408941Y1281684D01*
X403862D01*
X401323Y1284223D01*
X386088Y1281684D02*
X396245D01*
X386088Y1291841D01*
Y1294380D01*
X388627Y1296919D01*
X393706D01*
X396245Y1294380D01*
X381010Y1296919D02*
X370853D01*
Y1294380D01*
X381010Y1284223D01*
Y1281684D01*
X513083Y561082D02*
X515622Y563621D01*
X520701D01*
X523240Y561082D01*
Y550925D01*
X520701Y548386D01*
X515622D01*
X513083Y550925D01*
X508005Y548386D02*
X502927D01*
X505466D01*
Y563621D01*
X508005Y561082D01*
X495309Y548386D02*
X490231D01*
X492770D01*
Y563621D01*
X495309Y561082D01*
X482613Y550925D02*
X480074Y548386D01*
X474996D01*
X472456Y550925D01*
Y561082D01*
X474996Y563621D01*
X480074D01*
X482613Y561082D01*
Y558543D01*
X480074Y556003D01*
X472456D01*
X520957Y665984D02*
X523497Y668523D01*
X528575D01*
X531114Y665984D01*
Y655827D01*
X528575Y653288D01*
X523497D01*
X520957Y655827D01*
X515879Y653288D02*
X510801D01*
X513340D01*
Y668523D01*
X515879Y665984D01*
X503183D02*
X500644Y668523D01*
X495565D01*
X493026Y665984D01*
Y655827D01*
X495565Y653288D01*
X500644D01*
X503183Y655827D01*
Y665984D01*
X477791Y668523D02*
X482870Y665984D01*
X487948Y660906D01*
Y655827D01*
X485409Y653288D01*
X480330D01*
X477791Y655827D01*
Y658366D01*
X480330Y660906D01*
X487948D01*
X614175Y979928D02*
X616715Y982467D01*
X621793D01*
X624332Y979928D01*
Y969771D01*
X621793Y967232D01*
X616715D01*
X614175Y969771D01*
X598940Y982467D02*
X604019Y979928D01*
X609097Y974849D01*
Y969771D01*
X606558Y967232D01*
X601479D01*
X598940Y969771D01*
Y972310D01*
X601479Y974849D01*
X609097D01*
X593862Y979928D02*
X591323Y982467D01*
X586244D01*
X583705Y979928D01*
Y977389D01*
X586244Y974849D01*
X583705Y972310D01*
Y969771D01*
X586244Y967232D01*
X591323D01*
X593862Y969771D01*
Y972310D01*
X591323Y974849D01*
X593862Y977389D01*
Y979928D01*
X591323Y974849D02*
X586244D01*
X723649Y245360D02*
X726189Y247899D01*
X731267D01*
X733806Y245360D01*
Y235203D01*
X731267Y232664D01*
X726189D01*
X723649Y235203D01*
X718571Y232664D02*
X713493D01*
X716032D01*
Y247899D01*
X718571Y245360D01*
X695718Y247899D02*
X700797Y245360D01*
X705875Y240282D01*
Y235203D01*
X703336Y232664D01*
X698258D01*
X695718Y235203D01*
Y237742D01*
X698258Y240282D01*
X705875D01*
X690640Y245360D02*
X688101Y247899D01*
X683022D01*
X680483Y245360D01*
Y235203D01*
X683022Y232664D01*
X688101D01*
X690640Y235203D01*
Y245360D01*
X727967Y349754D02*
X730507Y352293D01*
X735585D01*
X738124Y349754D01*
Y339597D01*
X735585Y337058D01*
X730507D01*
X727967Y339597D01*
X722889Y337058D02*
X717811D01*
X720350D01*
Y352293D01*
X722889Y349754D01*
X702576Y337058D02*
Y352293D01*
X710193Y344675D01*
X700036D01*
X694958Y352293D02*
X684801D01*
Y349754D01*
X694958Y339597D01*
Y337058D01*
X620525Y245106D02*
X623064Y247645D01*
X628143D01*
X630682Y245106D01*
Y234949D01*
X628143Y232410D01*
X623064D01*
X620525Y234949D01*
X615447Y232410D02*
X610369D01*
X612908D01*
Y247645D01*
X615447Y245106D01*
X592594Y247645D02*
X602751D01*
Y240028D01*
X597673Y242567D01*
X595134D01*
X592594Y240028D01*
Y234949D01*
X595134Y232410D01*
X600212D01*
X602751Y234949D01*
X587516D02*
X584977Y232410D01*
X579898D01*
X577359Y234949D01*
Y245106D01*
X579898Y247645D01*
X584977D01*
X587516Y245106D01*
Y242567D01*
X584977Y240028D01*
X577359D01*
X610111Y1082798D02*
X612650Y1085337D01*
X617729D01*
X620268Y1082798D01*
Y1072641D01*
X617729Y1070102D01*
X612650D01*
X610111Y1072641D01*
X594876Y1085337D02*
X605033D01*
Y1077719D01*
X599955Y1080259D01*
X597415D01*
X594876Y1077719D01*
Y1072641D01*
X597415Y1070102D01*
X602494D01*
X605033Y1072641D01*
X579641Y1085337D02*
X589798D01*
Y1077719D01*
X584720Y1080259D01*
X582180D01*
X579641Y1077719D01*
Y1072641D01*
X582180Y1070102D01*
X587259D01*
X589798Y1072641D01*
X612651Y1189478D02*
X615191Y1192017D01*
X620269D01*
X622808Y1189478D01*
Y1179321D01*
X620269Y1176782D01*
X615191D01*
X612651Y1179321D01*
X599955Y1176782D02*
Y1192017D01*
X607573Y1184399D01*
X597416D01*
X582181Y1176782D02*
X592338D01*
X582181Y1186939D01*
Y1189478D01*
X584720Y1192017D01*
X589799D01*
X592338Y1189478D01*
X609349Y1293618D02*
X611889Y1296157D01*
X616967D01*
X619506Y1293618D01*
Y1283461D01*
X616967Y1280922D01*
X611889D01*
X609349Y1283461D01*
X594114Y1280922D02*
X604271D01*
X594114Y1291079D01*
Y1293618D01*
X596653Y1296157D01*
X601732D01*
X604271Y1293618D01*
X589036Y1283461D02*
X586497Y1280922D01*
X581418D01*
X578879Y1283461D01*
Y1293618D01*
X581418Y1296157D01*
X586497D01*
X589036Y1293618D01*
Y1291079D01*
X586497Y1288539D01*
X578879D01*
X606809Y875534D02*
X609348Y878073D01*
X614427D01*
X616966Y875534D01*
Y865377D01*
X614427Y862838D01*
X609348D01*
X606809Y865377D01*
X601731Y875534D02*
X599192Y878073D01*
X594113D01*
X591574Y875534D01*
Y872995D01*
X594113Y870455D01*
X591574Y867916D01*
Y865377D01*
X594113Y862838D01*
X599192D01*
X601731Y865377D01*
Y867916D01*
X599192Y870455D01*
X601731Y872995D01*
Y875534D01*
X599192Y870455D02*
X594113D01*
X586496Y862838D02*
X581418D01*
X583957D01*
Y878073D01*
X586496Y875534D01*
X713743Y876804D02*
X716283Y879343D01*
X721361D01*
X723900Y876804D01*
Y866647D01*
X721361Y864108D01*
X716283D01*
X713743Y866647D01*
X708665Y876804D02*
X706126Y879343D01*
X701047D01*
X698508Y876804D01*
Y874265D01*
X701047Y871725D01*
X698508Y869186D01*
Y866647D01*
X701047Y864108D01*
X706126D01*
X708665Y866647D01*
Y869186D01*
X706126Y871725D01*
X708665Y874265D01*
Y876804D01*
X706126Y871725D02*
X701047D01*
X683273Y864108D02*
X693430D01*
X683273Y874265D01*
Y876804D01*
X685812Y879343D01*
X690891D01*
X693430Y876804D01*
X623319Y348738D02*
X625858Y351277D01*
X630937D01*
X633476Y348738D01*
Y338581D01*
X630937Y336042D01*
X625858D01*
X623319Y338581D01*
X618241Y336042D02*
X613163D01*
X615702D01*
Y351277D01*
X618241Y348738D01*
X597928Y336042D02*
Y351277D01*
X605545Y343660D01*
X595388D01*
X580153Y351277D02*
X585232Y348738D01*
X590310Y343660D01*
Y338581D01*
X587771Y336042D01*
X582692D01*
X580153Y338581D01*
Y341120D01*
X582692Y343660D01*
X590310D01*
X1665989Y246884D02*
X1668528Y249423D01*
X1673607D01*
X1676146Y246884D01*
Y236727D01*
X1673607Y234188D01*
X1668528D01*
X1665989Y236727D01*
X1660911Y234188D02*
X1655833D01*
X1658372D01*
Y249423D01*
X1660911Y246884D01*
X1638058Y249423D02*
X1643137Y246884D01*
X1648215Y241805D01*
Y236727D01*
X1645676Y234188D01*
X1640598D01*
X1638058Y236727D01*
Y239266D01*
X1640598Y241805D01*
X1648215D01*
X1632980Y236727D02*
X1630441Y234188D01*
X1625362D01*
X1622823Y236727D01*
Y246884D01*
X1625362Y249423D01*
X1630441D01*
X1632980Y246884D01*
Y244345D01*
X1630441Y241805D01*
X1622823D01*
X1562865Y245106D02*
X1565405Y247645D01*
X1570483D01*
X1573022Y245106D01*
Y234949D01*
X1570483Y232410D01*
X1565405D01*
X1562865Y234949D01*
X1557787Y232410D02*
X1552709D01*
X1555248D01*
Y247645D01*
X1557787Y245106D01*
X1534934Y247645D02*
X1540013Y245106D01*
X1545091Y240028D01*
Y234949D01*
X1542552Y232410D01*
X1537473D01*
X1534934Y234949D01*
Y237488D01*
X1537473Y240028D01*
X1545091D01*
X1529856Y245106D02*
X1527317Y247645D01*
X1522238D01*
X1519699Y245106D01*
Y242567D01*
X1522238Y240028D01*
X1519699Y237488D01*
Y234949D01*
X1522238Y232410D01*
X1527317D01*
X1529856Y234949D01*
Y237488D01*
X1527317Y240028D01*
X1529856Y242567D01*
Y245106D01*
X1527317Y240028D02*
X1522238D01*
X1663703Y456688D02*
X1666243Y459227D01*
X1671321D01*
X1673860Y456688D01*
Y446531D01*
X1671321Y443992D01*
X1666243D01*
X1663703Y446531D01*
X1658625Y443992D02*
X1653547D01*
X1656086D01*
Y459227D01*
X1658625Y456688D01*
X1638311Y443992D02*
Y459227D01*
X1645929Y451609D01*
X1635772D01*
X1630694Y456688D02*
X1628155Y459227D01*
X1623076D01*
X1620537Y456688D01*
Y454149D01*
X1623076Y451609D01*
X1625616D01*
X1623076D01*
X1620537Y449070D01*
Y446531D01*
X1623076Y443992D01*
X1628155D01*
X1630694Y446531D01*
X1561849Y452878D02*
X1564388Y455417D01*
X1569467D01*
X1572006Y452878D01*
Y442721D01*
X1569467Y440182D01*
X1564388D01*
X1561849Y442721D01*
X1556771Y440182D02*
X1551693D01*
X1554232D01*
Y455417D01*
X1556771Y452878D01*
X1536458Y440182D02*
Y455417D01*
X1544075Y447799D01*
X1533918D01*
X1518683Y440182D02*
X1528840D01*
X1518683Y450339D01*
Y452878D01*
X1521222Y455417D01*
X1526301D01*
X1528840Y452878D01*
X1454153Y456688D02*
X1456693Y459227D01*
X1461771D01*
X1464310Y456688D01*
Y446531D01*
X1461771Y443992D01*
X1456693D01*
X1454153Y446531D01*
X1449075Y443992D02*
X1443997D01*
X1446536D01*
Y459227D01*
X1449075Y456688D01*
X1428761Y443992D02*
Y459227D01*
X1436379Y451609D01*
X1426222D01*
X1421144Y443992D02*
X1416066D01*
X1418605D01*
Y459227D01*
X1421144Y456688D01*
X1352045Y244344D02*
X1354585Y246883D01*
X1359663D01*
X1362202Y244344D01*
Y234187D01*
X1359663Y231648D01*
X1354585D01*
X1352045Y234187D01*
X1346967Y231648D02*
X1341889D01*
X1344428D01*
Y246883D01*
X1346967Y244344D01*
X1324114Y246883D02*
X1329193Y244344D01*
X1334271Y239265D01*
Y234187D01*
X1331732Y231648D01*
X1326653D01*
X1324114Y234187D01*
Y236726D01*
X1326653Y239265D01*
X1334271D01*
X1308879Y246883D02*
X1313958Y244344D01*
X1319036Y239265D01*
Y234187D01*
X1316497Y231648D01*
X1311418D01*
X1308879Y234187D01*
Y236726D01*
X1311418Y239265D01*
X1319036D01*
X1354331Y351786D02*
X1356871Y354325D01*
X1361949D01*
X1364488Y351786D01*
Y341629D01*
X1361949Y339090D01*
X1356871D01*
X1354331Y341629D01*
X1349253Y339090D02*
X1344175D01*
X1346714D01*
Y354325D01*
X1349253Y351786D01*
X1326400Y354325D02*
X1336557D01*
Y346707D01*
X1331479Y349247D01*
X1328940D01*
X1326400Y346707D01*
Y341629D01*
X1328940Y339090D01*
X1334018D01*
X1336557Y341629D01*
X1321322Y351786D02*
X1318783Y354325D01*
X1313704D01*
X1311165Y351786D01*
Y349247D01*
X1313704Y346707D01*
X1316244D01*
X1313704D01*
X1311165Y344168D01*
Y341629D01*
X1313704Y339090D01*
X1318783D01*
X1321322Y341629D01*
X1456693Y247646D02*
X1459232Y250185D01*
X1464311D01*
X1466850Y247646D01*
Y237489D01*
X1464311Y234950D01*
X1459232D01*
X1456693Y237489D01*
X1451615Y234950D02*
X1446537D01*
X1449076D01*
Y250185D01*
X1451615Y247646D01*
X1428762Y250185D02*
X1433841Y247646D01*
X1438919Y242568D01*
Y237489D01*
X1436380Y234950D01*
X1431302D01*
X1428762Y237489D01*
Y240028D01*
X1431302Y242568D01*
X1438919D01*
X1423684Y250185D02*
X1413527D01*
Y247646D01*
X1423684Y237489D01*
Y234950D01*
X1246127Y248916D02*
X1248667Y251455D01*
X1253745D01*
X1256284Y248916D01*
Y238759D01*
X1253745Y236220D01*
X1248667D01*
X1246127Y238759D01*
X1241049Y236220D02*
X1235971D01*
X1238510D01*
Y251455D01*
X1241049Y248916D01*
X1218196Y251455D02*
X1223275Y248916D01*
X1228353Y243838D01*
Y238759D01*
X1225814Y236220D01*
X1220735D01*
X1218196Y238759D01*
Y241298D01*
X1220735Y243838D01*
X1228353D01*
X1202961Y251455D02*
X1213118D01*
Y243838D01*
X1208040Y246377D01*
X1205500D01*
X1202961Y243838D01*
Y238759D01*
X1205500Y236220D01*
X1210579D01*
X1213118Y238759D01*
X1566167Y354834D02*
X1568707Y357373D01*
X1573785D01*
X1576324Y354834D01*
Y344677D01*
X1573785Y342138D01*
X1568707D01*
X1566167Y344677D01*
X1561089Y342138D02*
X1556011D01*
X1558550D01*
Y357373D01*
X1561089Y354834D01*
X1538236Y357373D02*
X1548393D01*
Y349756D01*
X1543315Y352295D01*
X1540775D01*
X1538236Y349756D01*
Y344677D01*
X1540775Y342138D01*
X1545854D01*
X1548393Y344677D01*
X1523001Y357373D02*
X1533158D01*
Y349756D01*
X1528080Y352295D01*
X1525540D01*
X1523001Y349756D01*
Y344677D01*
X1525540Y342138D01*
X1530619D01*
X1533158Y344677D01*
X1464059Y352548D02*
X1466599Y355087D01*
X1471677D01*
X1474216Y352548D01*
Y342391D01*
X1471677Y339852D01*
X1466599D01*
X1464059Y342391D01*
X1458981Y339852D02*
X1453903D01*
X1456442D01*
Y355087D01*
X1458981Y352548D01*
X1436128Y355087D02*
X1446285D01*
Y347469D01*
X1441207Y350009D01*
X1438667D01*
X1436128Y347469D01*
Y342391D01*
X1438667Y339852D01*
X1443746D01*
X1446285Y342391D01*
X1423432Y339852D02*
Y355087D01*
X1431050Y347469D01*
X1420893D01*
X1246127Y350516D02*
X1248667Y353055D01*
X1253745D01*
X1256284Y350516D01*
Y340359D01*
X1253745Y337820D01*
X1248667D01*
X1246127Y340359D01*
X1241049Y337820D02*
X1235971D01*
X1238510D01*
Y353055D01*
X1241049Y350516D01*
X1218196Y353055D02*
X1228353D01*
Y345438D01*
X1223275Y347977D01*
X1220735D01*
X1218196Y345438D01*
Y340359D01*
X1220735Y337820D01*
X1225814D01*
X1228353Y340359D01*
X1202961Y337820D02*
X1213118D01*
X1202961Y347977D01*
Y350516D01*
X1205500Y353055D01*
X1210579D01*
X1213118Y350516D01*
X1140463Y353310D02*
X1143002Y355849D01*
X1148081D01*
X1150620Y353310D01*
Y343153D01*
X1148081Y340614D01*
X1143002D01*
X1140463Y343153D01*
X1135385Y340614D02*
X1130307D01*
X1132846D01*
Y355849D01*
X1135385Y353310D01*
X1112532Y355849D02*
X1122689D01*
Y348232D01*
X1117611Y350771D01*
X1115071D01*
X1112532Y348232D01*
Y343153D01*
X1115071Y340614D01*
X1120150D01*
X1122689Y343153D01*
X1107454Y340614D02*
X1102376D01*
X1104915D01*
Y355849D01*
X1107454Y353310D01*
X1353569Y455418D02*
X1356109Y457957D01*
X1361187D01*
X1363726Y455418D01*
Y445261D01*
X1361187Y442722D01*
X1356109D01*
X1353569Y445261D01*
X1348491Y442722D02*
X1343413D01*
X1345952D01*
Y457957D01*
X1348491Y455418D01*
X1328177Y442722D02*
Y457957D01*
X1335795Y450340D01*
X1325638D01*
X1320560Y455418D02*
X1318021Y457957D01*
X1312942D01*
X1310403Y455418D01*
Y445261D01*
X1312942Y442722D01*
X1318021D01*
X1320560Y445261D01*
Y455418D01*
X1145797Y454148D02*
X1148336Y456687D01*
X1153415D01*
X1155954Y454148D01*
Y443991D01*
X1153415Y441452D01*
X1148336D01*
X1145797Y443991D01*
X1140719Y441452D02*
X1135641D01*
X1138180D01*
Y456687D01*
X1140719Y454148D01*
X1128023D02*
X1125484Y456687D01*
X1120406D01*
X1117866Y454148D01*
Y451609D01*
X1120406Y449070D01*
X1122945D01*
X1120406D01*
X1117866Y446530D01*
Y443991D01*
X1120406Y441452D01*
X1125484D01*
X1128023Y443991D01*
X1112788Y454148D02*
X1110249Y456687D01*
X1105170D01*
X1102631Y454148D01*
Y451609D01*
X1105170Y449070D01*
X1102631Y446530D01*
Y443991D01*
X1105170Y441452D01*
X1110249D01*
X1112788Y443991D01*
Y446530D01*
X1110249Y449070D01*
X1112788Y451609D01*
Y454148D01*
X1110249Y449070D02*
X1105170D01*
X1246635Y456942D02*
X1249174Y459481D01*
X1254253D01*
X1256792Y456942D01*
Y446785D01*
X1254253Y444246D01*
X1249174D01*
X1246635Y446785D01*
X1241557Y444246D02*
X1236479D01*
X1239018D01*
Y459481D01*
X1241557Y456942D01*
X1228861D02*
X1226322Y459481D01*
X1221244D01*
X1218704Y456942D01*
Y454403D01*
X1221244Y451864D01*
X1223783D01*
X1221244D01*
X1218704Y449324D01*
Y446785D01*
X1221244Y444246D01*
X1226322D01*
X1228861Y446785D01*
X1213626D02*
X1211087Y444246D01*
X1206008D01*
X1203469Y446785D01*
Y456942D01*
X1206008Y459481D01*
X1211087D01*
X1213626Y456942D01*
Y454403D01*
X1211087Y451864D01*
X1203469D01*
X1041657Y350008D02*
X1044196Y352547D01*
X1049275D01*
X1051814Y350008D01*
Y339851D01*
X1049275Y337312D01*
X1044196D01*
X1041657Y339851D01*
X1036579Y337312D02*
X1031501D01*
X1034040D01*
Y352547D01*
X1036579Y350008D01*
X1013726Y352547D02*
X1023883D01*
Y344930D01*
X1018805Y347469D01*
X1016265D01*
X1013726Y344930D01*
Y339851D01*
X1016265Y337312D01*
X1021344D01*
X1023883Y339851D01*
X1008648Y350008D02*
X1006109Y352547D01*
X1001030D01*
X998491Y350008D01*
Y339851D01*
X1001030Y337312D01*
X1006109D01*
X1008648Y339851D01*
Y350008D01*
X834393Y351786D02*
X836933Y354325D01*
X842011D01*
X844550Y351786D01*
Y341629D01*
X842011Y339090D01*
X836933D01*
X834393Y341629D01*
X829315Y339090D02*
X824237D01*
X826776D01*
Y354325D01*
X829315Y351786D01*
X809001Y339090D02*
Y354325D01*
X816619Y346707D01*
X806462D01*
X801384Y351786D02*
X798845Y354325D01*
X793766D01*
X791227Y351786D01*
Y349247D01*
X793766Y346707D01*
X791227Y344168D01*
Y341629D01*
X793766Y339090D01*
X798845D01*
X801384Y341629D01*
Y344168D01*
X798845Y346707D01*
X801384Y349247D01*
Y351786D01*
X798845Y346707D02*
X793766D01*
X937009Y351786D02*
X939548Y354325D01*
X944627D01*
X947166Y351786D01*
Y341629D01*
X944627Y339090D01*
X939548D01*
X937009Y341629D01*
X931931Y339090D02*
X926853D01*
X929392D01*
Y354325D01*
X931931Y351786D01*
X911618Y339090D02*
Y354325D01*
X919235Y346707D01*
X909078D01*
X904000Y341629D02*
X901461Y339090D01*
X896382D01*
X893843Y341629D01*
Y351786D01*
X896382Y354325D01*
X901461D01*
X904000Y351786D01*
Y349247D01*
X901461Y346707D01*
X893843D01*
X823725Y243074D02*
X826264Y245613D01*
X831343D01*
X833882Y243074D01*
Y232917D01*
X831343Y230378D01*
X826264D01*
X823725Y232917D01*
X818647Y230378D02*
X813569D01*
X816108D01*
Y245613D01*
X818647Y243074D01*
X795794Y245613D02*
X800873Y243074D01*
X805951Y237995D01*
Y232917D01*
X803412Y230378D01*
X798334D01*
X795794Y232917D01*
Y235456D01*
X798334Y237995D01*
X805951D01*
X790716Y230378D02*
X785638D01*
X788177D01*
Y245613D01*
X790716Y243074D01*
X934977Y241296D02*
X937516Y243835D01*
X942595D01*
X945134Y241296D01*
Y231139D01*
X942595Y228600D01*
X937516D01*
X934977Y231139D01*
X929899Y228600D02*
X924821D01*
X927360D01*
Y243835D01*
X929899Y241296D01*
X907046Y243835D02*
X912125Y241296D01*
X917203Y236217D01*
Y231139D01*
X914664Y228600D01*
X909585D01*
X907046Y231139D01*
Y233678D01*
X909585Y236217D01*
X917203D01*
X891811Y228600D02*
X901968D01*
X891811Y238757D01*
Y241296D01*
X894350Y243835D01*
X899429D01*
X901968Y241296D01*
X1146559Y245614D02*
X1149099Y248153D01*
X1154177D01*
X1156716Y245614D01*
Y235457D01*
X1154177Y232918D01*
X1149099D01*
X1146559Y235457D01*
X1141481Y232918D02*
X1136403D01*
X1138942D01*
Y248153D01*
X1141481Y245614D01*
X1118628Y248153D02*
X1123707Y245614D01*
X1128785Y240536D01*
Y235457D01*
X1126246Y232918D01*
X1121168D01*
X1118628Y235457D01*
Y237996D01*
X1121168Y240536D01*
X1128785D01*
X1105932Y232918D02*
Y248153D01*
X1113550Y240536D01*
X1103393D01*
X1044705Y245868D02*
X1047244Y248407D01*
X1052323D01*
X1054862Y245868D01*
Y235711D01*
X1052323Y233172D01*
X1047244D01*
X1044705Y235711D01*
X1039627Y233172D02*
X1034549D01*
X1037088D01*
Y248407D01*
X1039627Y245868D01*
X1016774Y248407D02*
X1021853Y245868D01*
X1026931Y240790D01*
Y235711D01*
X1024392Y233172D01*
X1019314D01*
X1016774Y235711D01*
Y238250D01*
X1019314Y240790D01*
X1026931D01*
X1011696Y245868D02*
X1009157Y248407D01*
X1004078D01*
X1001539Y245868D01*
Y243329D01*
X1004078Y240790D01*
X1006618D01*
X1004078D01*
X1001539Y238250D01*
Y235711D01*
X1004078Y233172D01*
X1009157D01*
X1011696Y235711D01*
X1545339Y1190748D02*
X1547879Y1193287D01*
X1552957D01*
X1555496Y1190748D01*
Y1180591D01*
X1552957Y1178052D01*
X1547879D01*
X1545339Y1180591D01*
X1530104Y1193287D02*
X1540261D01*
Y1185669D01*
X1535183Y1188209D01*
X1532643D01*
X1530104Y1185669D01*
Y1180591D01*
X1532643Y1178052D01*
X1537722D01*
X1540261Y1180591D01*
X1525026Y1178052D02*
X1519948D01*
X1522487D01*
Y1193287D01*
X1525026Y1190748D01*
X1549149Y1086100D02*
X1551689Y1088639D01*
X1556767D01*
X1559306Y1086100D01*
Y1075943D01*
X1556767Y1073404D01*
X1551689D01*
X1549149Y1075943D01*
X1533914Y1088639D02*
X1538993Y1086100D01*
X1544071Y1081021D01*
Y1075943D01*
X1541532Y1073404D01*
X1536453D01*
X1533914Y1075943D01*
Y1078482D01*
X1536453Y1081021D01*
X1544071D01*
X1521218Y1073404D02*
Y1088639D01*
X1528836Y1081021D01*
X1518679D01*
X1339091Y1083560D02*
X1341631Y1086099D01*
X1346709D01*
X1349248Y1083560D01*
Y1073403D01*
X1346709Y1070864D01*
X1341631D01*
X1339091Y1073403D01*
X1323856Y1086099D02*
X1328935Y1083560D01*
X1334013Y1078482D01*
Y1073403D01*
X1331474Y1070864D01*
X1326395D01*
X1323856Y1073403D01*
Y1075942D01*
X1326395Y1078482D01*
X1334013D01*
X1308621Y1070864D02*
X1318778D01*
X1308621Y1081021D01*
Y1083560D01*
X1311160Y1086099D01*
X1316239D01*
X1318778Y1083560D01*
X1340615Y1400298D02*
X1343154Y1402837D01*
X1348233D01*
X1350772Y1400298D01*
Y1390141D01*
X1348233Y1387602D01*
X1343154D01*
X1340615Y1390141D01*
X1325380Y1387602D02*
X1335537D01*
X1325380Y1397759D01*
Y1400298D01*
X1327919Y1402837D01*
X1332998D01*
X1335537Y1400298D01*
X1320302D02*
X1317763Y1402837D01*
X1312684D01*
X1310145Y1400298D01*
Y1397759D01*
X1312684Y1395220D01*
X1315224D01*
X1312684D01*
X1310145Y1392680D01*
Y1390141D01*
X1312684Y1387602D01*
X1317763D01*
X1320302Y1390141D01*
X1235459Y1399028D02*
X1237999Y1401567D01*
X1243077D01*
X1245616Y1399028D01*
Y1388871D01*
X1243077Y1386332D01*
X1237999D01*
X1235459Y1388871D01*
X1220224Y1386332D02*
X1230381D01*
X1220224Y1396489D01*
Y1399028D01*
X1222763Y1401567D01*
X1227842D01*
X1230381Y1399028D01*
X1204989Y1386332D02*
X1215146D01*
X1204989Y1396489D01*
Y1399028D01*
X1207528Y1401567D01*
X1212607D01*
X1215146Y1399028D01*
X1124461Y1397758D02*
X1127001Y1400297D01*
X1132079D01*
X1134618Y1397758D01*
Y1387601D01*
X1132079Y1385062D01*
X1127001D01*
X1124461Y1387601D01*
X1109226Y1385062D02*
X1119383D01*
X1109226Y1395219D01*
Y1397758D01*
X1111765Y1400297D01*
X1116844D01*
X1119383Y1397758D01*
X1104148Y1385062D02*
X1099070D01*
X1101609D01*
Y1400297D01*
X1104148Y1397758D01*
X1236983Y1293618D02*
X1239522Y1296157D01*
X1244601D01*
X1247140Y1293618D01*
Y1283461D01*
X1244601Y1280922D01*
X1239522D01*
X1236983Y1283461D01*
X1231905Y1293618D02*
X1229366Y1296157D01*
X1224287D01*
X1221748Y1293618D01*
Y1291079D01*
X1224287Y1288539D01*
X1226827D01*
X1224287D01*
X1221748Y1286000D01*
Y1283461D01*
X1224287Y1280922D01*
X1229366D01*
X1231905Y1283461D01*
X1206513Y1296157D02*
X1216670D01*
Y1288539D01*
X1211591Y1291079D01*
X1209052D01*
X1206513Y1288539D01*
Y1283461D01*
X1209052Y1280922D01*
X1214131D01*
X1216670Y1283461D01*
X1129287Y1293618D02*
X1131826Y1296157D01*
X1136905D01*
X1139444Y1293618D01*
Y1283461D01*
X1136905Y1280922D01*
X1131826D01*
X1129287Y1283461D01*
X1124209Y1293618D02*
X1121670Y1296157D01*
X1116591D01*
X1114052Y1293618D01*
Y1291079D01*
X1116591Y1288539D01*
X1119131D01*
X1116591D01*
X1114052Y1286000D01*
Y1283461D01*
X1116591Y1280922D01*
X1121670D01*
X1124209Y1283461D01*
X1101356Y1280922D02*
Y1296157D01*
X1108974Y1288539D01*
X1098817D01*
X1026417Y1291078D02*
X1028957Y1293617D01*
X1034035D01*
X1036574Y1291078D01*
Y1280921D01*
X1034035Y1278382D01*
X1028957D01*
X1026417Y1280921D01*
X1021339Y1291078D02*
X1018800Y1293617D01*
X1013721D01*
X1011182Y1291078D01*
Y1288539D01*
X1013721Y1285999D01*
X1016261D01*
X1013721D01*
X1011182Y1283460D01*
Y1280921D01*
X1013721Y1278382D01*
X1018800D01*
X1021339Y1280921D01*
X1006104Y1291078D02*
X1003565Y1293617D01*
X998486D01*
X995947Y1291078D01*
Y1288539D01*
X998486Y1285999D01*
X1001025D01*
X998486D01*
X995947Y1283460D01*
Y1280921D01*
X998486Y1278382D01*
X1003565D01*
X1006104Y1280921D01*
X919991Y1294380D02*
X922531Y1296919D01*
X927609D01*
X930148Y1294380D01*
Y1284223D01*
X927609Y1281684D01*
X922531D01*
X919991Y1284223D01*
X914913Y1294380D02*
X912374Y1296919D01*
X907295D01*
X904756Y1294380D01*
Y1291841D01*
X907295Y1289301D01*
X909835D01*
X907295D01*
X904756Y1286762D01*
Y1284223D01*
X907295Y1281684D01*
X912374D01*
X914913Y1284223D01*
X889521Y1281684D02*
X899678D01*
X889521Y1291841D01*
Y1294380D01*
X892060Y1296919D01*
X897139D01*
X899678Y1294380D01*
X1029465Y1402838D02*
X1032004Y1405377D01*
X1037083D01*
X1039622Y1402838D01*
Y1392681D01*
X1037083Y1390142D01*
X1032004D01*
X1029465Y1392681D01*
X1014230Y1390142D02*
X1024387D01*
X1014230Y1400299D01*
Y1402838D01*
X1016769Y1405377D01*
X1021848D01*
X1024387Y1402838D01*
X1009152D02*
X1006613Y1405377D01*
X1001534D01*
X998995Y1402838D01*
Y1392681D01*
X1001534Y1390142D01*
X1006613D01*
X1009152Y1392681D01*
Y1402838D01*
X920753Y1400298D02*
X923292Y1402837D01*
X928371D01*
X930910Y1400298D01*
Y1390141D01*
X928371Y1387602D01*
X923292D01*
X920753Y1390141D01*
X915675Y1387602D02*
X910597D01*
X913136D01*
Y1402837D01*
X915675Y1400298D01*
X902979Y1390141D02*
X900440Y1387602D01*
X895361D01*
X892822Y1390141D01*
Y1400298D01*
X895361Y1402837D01*
X900440D01*
X902979Y1400298D01*
Y1397759D01*
X900440Y1395220D01*
X892822D01*
X814835Y1401568D02*
X817374Y1404107D01*
X822453D01*
X824992Y1401568D01*
Y1391411D01*
X822453Y1388872D01*
X817374D01*
X814835Y1391411D01*
X809757Y1388872D02*
X804679D01*
X807218D01*
Y1404107D01*
X809757Y1401568D01*
X797061D02*
X794522Y1404107D01*
X789444D01*
X786904Y1401568D01*
Y1399029D01*
X789444Y1396490D01*
X786904Y1393950D01*
Y1391411D01*
X789444Y1388872D01*
X794522D01*
X797061Y1391411D01*
Y1393950D01*
X794522Y1396490D01*
X797061Y1399029D01*
Y1401568D01*
X794522Y1396490D02*
X789444D01*
X1446025Y1188208D02*
X1448564Y1190747D01*
X1453643D01*
X1456182Y1188208D01*
Y1178051D01*
X1453643Y1175512D01*
X1448564D01*
X1446025Y1178051D01*
X1430790Y1190747D02*
X1440947D01*
Y1183130D01*
X1435869Y1185669D01*
X1433329D01*
X1430790Y1183130D01*
Y1178051D01*
X1433329Y1175512D01*
X1438408D01*
X1440947Y1178051D01*
X1425712Y1188208D02*
X1423173Y1190747D01*
X1418094D01*
X1415555Y1188208D01*
Y1178051D01*
X1418094Y1175512D01*
X1423173D01*
X1425712Y1178051D01*
Y1188208D01*
X712473Y1088640D02*
X715013Y1091179D01*
X720091D01*
X722630Y1088640D01*
Y1078483D01*
X720091Y1075944D01*
X715013D01*
X712473Y1078483D01*
X697238Y1091179D02*
X707395D01*
Y1083561D01*
X702317Y1086101D01*
X699777D01*
X697238Y1083561D01*
Y1078483D01*
X699777Y1075944D01*
X704856D01*
X707395Y1078483D01*
X682003Y1091179D02*
X687082Y1088640D01*
X692160Y1083561D01*
Y1078483D01*
X689621Y1075944D01*
X684542D01*
X682003Y1078483D01*
Y1081022D01*
X684542Y1083561D01*
X692160D01*
X1342393Y1294126D02*
X1344933Y1296665D01*
X1350011D01*
X1352550Y1294126D01*
Y1283969D01*
X1350011Y1281430D01*
X1344933D01*
X1342393Y1283969D01*
X1337315Y1294126D02*
X1334776Y1296665D01*
X1329697D01*
X1327158Y1294126D01*
Y1291587D01*
X1329697Y1289048D01*
X1332237D01*
X1329697D01*
X1327158Y1286508D01*
Y1283969D01*
X1329697Y1281430D01*
X1334776D01*
X1337315Y1283969D01*
X1311923Y1296665D02*
X1317001Y1294126D01*
X1322080Y1289048D01*
Y1283969D01*
X1319541Y1281430D01*
X1314462D01*
X1311923Y1283969D01*
Y1286508D01*
X1314462Y1289048D01*
X1322080D01*
X813311Y1292348D02*
X815851Y1294887D01*
X820929D01*
X823468Y1292348D01*
Y1282191D01*
X820929Y1279652D01*
X815851D01*
X813311Y1282191D01*
X808233Y1292348D02*
X805694Y1294887D01*
X800615D01*
X798076Y1292348D01*
Y1289809D01*
X800615Y1287269D01*
X803155D01*
X800615D01*
X798076Y1284730D01*
Y1282191D01*
X800615Y1279652D01*
X805694D01*
X808233Y1282191D01*
X792998Y1279652D02*
X787919D01*
X790459D01*
Y1294887D01*
X792998Y1292348D01*
X713235Y1298444D02*
X715775Y1300983D01*
X720853D01*
X723392Y1298444D01*
Y1288287D01*
X720853Y1285748D01*
X715775D01*
X713235Y1288287D01*
X708157Y1298444D02*
X705618Y1300983D01*
X700539D01*
X698000Y1298444D01*
Y1295905D01*
X700539Y1293365D01*
X703079D01*
X700539D01*
X698000Y1290826D01*
Y1288287D01*
X700539Y1285748D01*
X705618D01*
X708157Y1288287D01*
X692922Y1298444D02*
X690383Y1300983D01*
X685304D01*
X682765Y1298444D01*
Y1288287D01*
X685304Y1285748D01*
X690383D01*
X692922Y1288287D01*
Y1298444D01*
X717045Y1191256D02*
X719585Y1193795D01*
X724663D01*
X727202Y1191256D01*
Y1181099D01*
X724663Y1178560D01*
X719585D01*
X717045Y1181099D01*
X704349Y1178560D02*
Y1193795D01*
X711967Y1186178D01*
X701810D01*
X696732Y1191256D02*
X694193Y1193795D01*
X689114D01*
X686575Y1191256D01*
Y1188717D01*
X689114Y1186178D01*
X691654D01*
X689114D01*
X686575Y1183638D01*
Y1181099D01*
X689114Y1178560D01*
X694193D01*
X696732Y1181099D01*
X816105Y1189986D02*
X818644Y1192525D01*
X823723D01*
X826262Y1189986D01*
Y1179829D01*
X823723Y1177290D01*
X818644D01*
X816105Y1179829D01*
X803409Y1177290D02*
Y1192525D01*
X811027Y1184908D01*
X800870D01*
X788174Y1177290D02*
Y1192525D01*
X795792Y1184908D01*
X785635D01*
X1340615Y1190748D02*
X1343154Y1193287D01*
X1348233D01*
X1350772Y1190748D01*
Y1180591D01*
X1348233Y1178052D01*
X1343154D01*
X1340615Y1180591D01*
X1327919Y1178052D02*
Y1193287D01*
X1335537Y1185669D01*
X1325380D01*
X1320302Y1180591D02*
X1317763Y1178052D01*
X1312684D01*
X1310145Y1180591D01*
Y1190748D01*
X1312684Y1193287D01*
X1317763D01*
X1320302Y1190748D01*
Y1188209D01*
X1317763Y1185669D01*
X1310145D01*
X1233681Y1190240D02*
X1236220Y1192779D01*
X1241299D01*
X1243838Y1190240D01*
Y1180083D01*
X1241299Y1177544D01*
X1236220D01*
X1233681Y1180083D01*
X1220985Y1177544D02*
Y1192779D01*
X1228603Y1185162D01*
X1218446D01*
X1213368Y1190240D02*
X1210829Y1192779D01*
X1205750D01*
X1203211Y1190240D01*
Y1187701D01*
X1205750Y1185162D01*
X1203211Y1182622D01*
Y1180083D01*
X1205750Y1177544D01*
X1210829D01*
X1213368Y1180083D01*
Y1182622D01*
X1210829Y1185162D01*
X1213368Y1187701D01*
Y1190240D01*
X1210829Y1185162D02*
X1205750D01*
X1028449Y1189478D02*
X1030988Y1192017D01*
X1036067D01*
X1038606Y1189478D01*
Y1179321D01*
X1036067Y1176782D01*
X1030988D01*
X1028449Y1179321D01*
X1015753Y1176782D02*
Y1192017D01*
X1023371Y1184399D01*
X1013214D01*
X997979Y1192017D02*
X1003057Y1189478D01*
X1008136Y1184399D01*
Y1179321D01*
X1005597Y1176782D01*
X1000518D01*
X997979Y1179321D01*
Y1181860D01*
X1000518Y1184399D01*
X1008136D01*
X1131573Y1192780D02*
X1134112Y1195319D01*
X1139191D01*
X1141730Y1192780D01*
Y1182623D01*
X1139191Y1180084D01*
X1134112D01*
X1131573Y1182623D01*
X1118877Y1180084D02*
Y1195319D01*
X1126495Y1187701D01*
X1116338D01*
X1111260Y1195319D02*
X1101103D01*
Y1192780D01*
X1111260Y1182623D01*
Y1180084D01*
X925579Y1192780D02*
X928119Y1195319D01*
X933197D01*
X935736Y1192780D01*
Y1182623D01*
X933197Y1180084D01*
X928119D01*
X925579Y1182623D01*
X912883Y1180084D02*
Y1195319D01*
X920501Y1187701D01*
X910344D01*
X895109Y1195319D02*
X905266D01*
Y1187701D01*
X900188Y1190241D01*
X897648D01*
X895109Y1187701D01*
Y1182623D01*
X897648Y1180084D01*
X902727D01*
X905266Y1182623D01*
X1549657Y980690D02*
X1552197Y983229D01*
X1557275D01*
X1559814Y980690D01*
Y970533D01*
X1557275Y967994D01*
X1552197D01*
X1549657Y970533D01*
X1544579Y983229D02*
X1534422D01*
Y980690D01*
X1544579Y970533D01*
Y967994D01*
X1529344Y983229D02*
X1519187D01*
Y980690D01*
X1529344Y970533D01*
Y967994D01*
X1446025Y979928D02*
X1448564Y982467D01*
X1453643D01*
X1456182Y979928D01*
Y969771D01*
X1453643Y967232D01*
X1448564D01*
X1446025Y969771D01*
X1440947Y982467D02*
X1430790D01*
Y979928D01*
X1440947Y969771D01*
Y967232D01*
X1415555Y982467D02*
X1420634Y979928D01*
X1425712Y974849D01*
Y969771D01*
X1423173Y967232D01*
X1418094D01*
X1415555Y969771D01*
Y972310D01*
X1418094Y974849D01*
X1425712D01*
X1655321Y1088894D02*
X1657861Y1091433D01*
X1662939D01*
X1665478Y1088894D01*
Y1078737D01*
X1662939Y1076198D01*
X1657861D01*
X1655321Y1078737D01*
X1640086Y1091433D02*
X1645165Y1088894D01*
X1650243Y1083816D01*
Y1078737D01*
X1647704Y1076198D01*
X1642625D01*
X1640086Y1078737D01*
Y1081276D01*
X1642625Y1083816D01*
X1650243D01*
X1624851Y1091433D02*
X1635008D01*
Y1083816D01*
X1629930Y1086355D01*
X1627390D01*
X1624851Y1083816D01*
Y1078737D01*
X1627390Y1076198D01*
X1632469D01*
X1635008Y1078737D01*
X1652781Y981706D02*
X1655320Y984245D01*
X1660399D01*
X1662938Y981706D01*
Y971549D01*
X1660399Y969010D01*
X1655320D01*
X1652781Y971549D01*
X1647703Y984245D02*
X1637546D01*
Y981706D01*
X1647703Y971549D01*
Y969010D01*
X1632468Y981706D02*
X1629929Y984245D01*
X1624850D01*
X1622311Y981706D01*
Y979167D01*
X1624850Y976628D01*
X1622311Y974088D01*
Y971549D01*
X1624850Y969010D01*
X1629929D01*
X1632468Y971549D01*
Y974088D01*
X1629929Y976628D01*
X1632468Y979167D01*
Y981706D01*
X1629929Y976628D02*
X1624850D01*
X1445009Y1087878D02*
X1447549Y1090417D01*
X1452627D01*
X1455166Y1087878D01*
Y1077721D01*
X1452627Y1075182D01*
X1447549D01*
X1445009Y1077721D01*
X1429774Y1090417D02*
X1434853Y1087878D01*
X1439931Y1082800D01*
Y1077721D01*
X1437392Y1075182D01*
X1432313D01*
X1429774Y1077721D01*
Y1080260D01*
X1432313Y1082800D01*
X1439931D01*
X1424696Y1087878D02*
X1422157Y1090417D01*
X1417078D01*
X1414539Y1087878D01*
Y1085339D01*
X1417078Y1082800D01*
X1419617D01*
X1417078D01*
X1414539Y1080260D01*
Y1077721D01*
X1417078Y1075182D01*
X1422157D01*
X1424696Y1077721D01*
X1341123Y979166D02*
X1343663Y981705D01*
X1348741D01*
X1351280Y979166D01*
Y969009D01*
X1348741Y966470D01*
X1343663D01*
X1341123Y969009D01*
X1336045Y981705D02*
X1325888D01*
Y979166D01*
X1336045Y969009D01*
Y966470D01*
X1310653Y981705D02*
X1320810D01*
Y974088D01*
X1315732Y976627D01*
X1313192D01*
X1310653Y974088D01*
Y969009D01*
X1313192Y966470D01*
X1318271D01*
X1320810Y969009D01*
X1240031Y979928D02*
X1242570Y982467D01*
X1247649D01*
X1250188Y979928D01*
Y969771D01*
X1247649Y967232D01*
X1242570D01*
X1240031Y969771D01*
X1234953Y982467D02*
X1224796D01*
Y979928D01*
X1234953Y969771D01*
Y967232D01*
X1212100D02*
Y982467D01*
X1219718Y974849D01*
X1209561D01*
X1133605Y978150D02*
X1136144Y980689D01*
X1141223D01*
X1143762Y978150D01*
Y967993D01*
X1141223Y965454D01*
X1136144D01*
X1133605Y967993D01*
X1128527Y980689D02*
X1118370D01*
Y978150D01*
X1128527Y967993D01*
Y965454D01*
X1113292Y978150D02*
X1110753Y980689D01*
X1105674D01*
X1103135Y978150D01*
Y975611D01*
X1105674Y973072D01*
X1108214D01*
X1105674D01*
X1103135Y970532D01*
Y967993D01*
X1105674Y965454D01*
X1110753D01*
X1113292Y967993D01*
X1029719Y978150D02*
X1032259Y980689D01*
X1037337D01*
X1039876Y978150D01*
Y967993D01*
X1037337Y965454D01*
X1032259D01*
X1029719Y967993D01*
X1024641Y980689D02*
X1014484D01*
Y978150D01*
X1024641Y967993D01*
Y965454D01*
X999249D02*
X1009406D01*
X999249Y975611D01*
Y978150D01*
X1001788Y980689D01*
X1006867D01*
X1009406Y978150D01*
X917959Y976372D02*
X920499Y978911D01*
X925577D01*
X928116Y976372D01*
Y966215D01*
X925577Y963676D01*
X920499D01*
X917959Y966215D01*
X912881Y978911D02*
X902724D01*
Y976372D01*
X912881Y966215D01*
Y963676D01*
X897646D02*
X892568D01*
X895107D01*
Y978911D01*
X897646Y976372D01*
X814327Y980690D02*
X816867Y983229D01*
X821945D01*
X824484Y980690D01*
Y970533D01*
X821945Y967994D01*
X816867D01*
X814327Y970533D01*
X809249Y983229D02*
X799092D01*
Y980690D01*
X809249Y970533D01*
Y967994D01*
X794014Y980690D02*
X791475Y983229D01*
X786396D01*
X783857Y980690D01*
Y970533D01*
X786396Y967994D01*
X791475D01*
X794014Y970533D01*
Y980690D01*
X716283Y979166D02*
X718822Y981705D01*
X723901D01*
X726440Y979166D01*
Y969009D01*
X723901Y966470D01*
X718822D01*
X716283Y969009D01*
X701048Y981705D02*
X706127Y979166D01*
X711205Y974088D01*
Y969009D01*
X708666Y966470D01*
X703587D01*
X701048Y969009D01*
Y971548D01*
X703587Y974088D01*
X711205D01*
X695970Y969009D02*
X693431Y966470D01*
X688352D01*
X685813Y969009D01*
Y979166D01*
X688352Y981705D01*
X693431D01*
X695970Y979166D01*
Y976627D01*
X693431Y974088D01*
X685813D01*
X1233935Y1080766D02*
X1236475Y1083305D01*
X1241553D01*
X1244092Y1080766D01*
Y1070609D01*
X1241553Y1068070D01*
X1236475D01*
X1233935Y1070609D01*
X1218700Y1083305D02*
X1223779Y1080766D01*
X1228857Y1075687D01*
Y1070609D01*
X1226318Y1068070D01*
X1221239D01*
X1218700Y1070609D01*
Y1073148D01*
X1221239Y1075687D01*
X1228857D01*
X1213622Y1068070D02*
X1208543D01*
X1211083D01*
Y1083305D01*
X1213622Y1080766D01*
X1131319Y1081782D02*
X1133858Y1084321D01*
X1138937D01*
X1141476Y1081782D01*
Y1071625D01*
X1138937Y1069086D01*
X1133858D01*
X1131319Y1071625D01*
X1116084Y1084321D02*
X1121163Y1081782D01*
X1126241Y1076703D01*
Y1071625D01*
X1123702Y1069086D01*
X1118623D01*
X1116084Y1071625D01*
Y1074164D01*
X1118623Y1076703D01*
X1126241D01*
X1111006Y1081782D02*
X1108467Y1084321D01*
X1103388D01*
X1100849Y1081782D01*
Y1071625D01*
X1103388Y1069086D01*
X1108467D01*
X1111006Y1071625D01*
Y1081782D01*
X924563Y1085338D02*
X927103Y1087877D01*
X932181D01*
X934720Y1085338D01*
Y1075181D01*
X932181Y1072642D01*
X927103D01*
X924563Y1075181D01*
X909328Y1087877D02*
X919485D01*
Y1080259D01*
X914407Y1082799D01*
X911867D01*
X909328Y1080259D01*
Y1075181D01*
X911867Y1072642D01*
X916946D01*
X919485Y1075181D01*
X904250Y1085338D02*
X901711Y1087877D01*
X896632D01*
X894093Y1085338D01*
Y1082799D01*
X896632Y1080259D01*
X894093Y1077720D01*
Y1075181D01*
X896632Y1072642D01*
X901711D01*
X904250Y1075181D01*
Y1077720D01*
X901711Y1080259D01*
X904250Y1082799D01*
Y1085338D01*
X901711Y1080259D02*
X896632D01*
X1027941Y1084322D02*
X1030480Y1086861D01*
X1035559D01*
X1038098Y1084322D01*
Y1074165D01*
X1035559Y1071626D01*
X1030480D01*
X1027941Y1074165D01*
X1012706Y1086861D02*
X1022863D01*
Y1079243D01*
X1017785Y1081783D01*
X1015245D01*
X1012706Y1079243D01*
Y1074165D01*
X1015245Y1071626D01*
X1020324D01*
X1022863Y1074165D01*
X1007628D02*
X1005089Y1071626D01*
X1000010D01*
X997471Y1074165D01*
Y1084322D01*
X1000010Y1086861D01*
X1005089D01*
X1007628Y1084322D01*
Y1081783D01*
X1005089Y1079243D01*
X997471D01*
X819407Y1081528D02*
X821946Y1084067D01*
X827025D01*
X829564Y1081528D01*
Y1071371D01*
X827025Y1068832D01*
X821946D01*
X819407Y1071371D01*
X804172Y1084067D02*
X814329D01*
Y1076450D01*
X809251Y1078989D01*
X806711D01*
X804172Y1076450D01*
Y1071371D01*
X806711Y1068832D01*
X811790D01*
X814329Y1071371D01*
X799094Y1084067D02*
X788937D01*
Y1081528D01*
X799094Y1071371D01*
Y1068832D01*
X1653035Y1506470D02*
X1655574Y1509009D01*
X1660653D01*
X1663192Y1506470D01*
Y1496313D01*
X1660653Y1493774D01*
X1655574D01*
X1653035Y1496313D01*
X1647957Y1493774D02*
X1642879D01*
X1645418D01*
Y1509009D01*
X1647957Y1506470D01*
X1635261D02*
X1632722Y1509009D01*
X1627643D01*
X1625104Y1506470D01*
Y1503931D01*
X1627643Y1501391D01*
X1630183D01*
X1627643D01*
X1625104Y1498852D01*
Y1496313D01*
X1627643Y1493774D01*
X1632722D01*
X1635261Y1496313D01*
X1547625Y1506470D02*
X1550164Y1509009D01*
X1555243D01*
X1557782Y1506470D01*
Y1496313D01*
X1555243Y1493774D01*
X1550164D01*
X1547625Y1496313D01*
X1542547Y1493774D02*
X1537469D01*
X1540008D01*
Y1509009D01*
X1542547Y1506470D01*
X1519694Y1493774D02*
X1529851D01*
X1519694Y1503931D01*
Y1506470D01*
X1522233Y1509009D01*
X1527312D01*
X1529851Y1506470D01*
X1658115Y1400298D02*
X1660654Y1402837D01*
X1665733D01*
X1668272Y1400298D01*
Y1390141D01*
X1665733Y1387602D01*
X1660654D01*
X1658115Y1390141D01*
X1642880Y1387602D02*
X1653037D01*
X1642880Y1397759D01*
Y1400298D01*
X1645419Y1402837D01*
X1650498D01*
X1653037Y1400298D01*
X1627645Y1402837D02*
X1632724Y1400298D01*
X1637802Y1395220D01*
Y1390141D01*
X1635263Y1387602D01*
X1630184D01*
X1627645Y1390141D01*
Y1392680D01*
X1630184Y1395220D01*
X1637802D01*
X1551689Y1397758D02*
X1554229Y1400297D01*
X1559307D01*
X1561846Y1397758D01*
Y1387601D01*
X1559307Y1385062D01*
X1554229D01*
X1551689Y1387601D01*
X1536454Y1385062D02*
X1546611D01*
X1536454Y1395219D01*
Y1397758D01*
X1538993Y1400297D01*
X1544072D01*
X1546611Y1397758D01*
X1521219Y1400297D02*
X1531376D01*
Y1392679D01*
X1526297Y1395219D01*
X1523758D01*
X1521219Y1392679D01*
Y1387601D01*
X1523758Y1385062D01*
X1528837D01*
X1531376Y1387601D01*
X1547879Y1294888D02*
X1550419Y1297427D01*
X1555497D01*
X1558036Y1294888D01*
Y1284731D01*
X1555497Y1282192D01*
X1550419D01*
X1547879Y1284731D01*
X1542801Y1294888D02*
X1540262Y1297427D01*
X1535183D01*
X1532644Y1294888D01*
Y1292349D01*
X1535183Y1289810D01*
X1537723D01*
X1535183D01*
X1532644Y1287270D01*
Y1284731D01*
X1535183Y1282192D01*
X1540262D01*
X1542801Y1284731D01*
X1527566Y1294888D02*
X1525027Y1297427D01*
X1519948D01*
X1517409Y1294888D01*
Y1292349D01*
X1519948Y1289810D01*
X1517409Y1287270D01*
Y1284731D01*
X1519948Y1282192D01*
X1525027D01*
X1527566Y1284731D01*
Y1287270D01*
X1525027Y1289810D01*
X1527566Y1292349D01*
Y1294888D01*
X1525027Y1289810D02*
X1519948D01*
X1446279Y1296158D02*
X1448819Y1298697D01*
X1453897D01*
X1456436Y1296158D01*
Y1286001D01*
X1453897Y1283462D01*
X1448819D01*
X1446279Y1286001D01*
X1441201Y1296158D02*
X1438662Y1298697D01*
X1433583D01*
X1431044Y1296158D01*
Y1293619D01*
X1433583Y1291080D01*
X1436123D01*
X1433583D01*
X1431044Y1288540D01*
Y1286001D01*
X1433583Y1283462D01*
X1438662D01*
X1441201Y1286001D01*
X1425966Y1298697D02*
X1415809D01*
Y1296158D01*
X1425966Y1286001D01*
Y1283462D01*
X1446787Y1398266D02*
X1449326Y1400805D01*
X1454405D01*
X1456944Y1398266D01*
Y1388109D01*
X1454405Y1385570D01*
X1449326D01*
X1446787Y1388109D01*
X1431552Y1385570D02*
X1441709D01*
X1431552Y1395727D01*
Y1398266D01*
X1434091Y1400805D01*
X1439170D01*
X1441709Y1398266D01*
X1418856Y1385570D02*
Y1400805D01*
X1426474Y1393188D01*
X1416317D01*
X1656845Y1295650D02*
X1659384Y1298189D01*
X1664463D01*
X1667002Y1295650D01*
Y1285493D01*
X1664463Y1282954D01*
X1659384D01*
X1656845Y1285493D01*
X1651767Y1295650D02*
X1649228Y1298189D01*
X1644149D01*
X1641610Y1295650D01*
Y1293111D01*
X1644149Y1290571D01*
X1646689D01*
X1644149D01*
X1641610Y1288032D01*
Y1285493D01*
X1644149Y1282954D01*
X1649228D01*
X1651767Y1285493D01*
X1636532D02*
X1633993Y1282954D01*
X1628914D01*
X1626375Y1285493D01*
Y1295650D01*
X1628914Y1298189D01*
X1633993D01*
X1636532Y1295650D01*
Y1293111D01*
X1633993Y1290571D01*
X1626375D01*
X1652527Y1188208D02*
X1655067Y1190747D01*
X1660145D01*
X1662684Y1188208D01*
Y1178051D01*
X1660145Y1175512D01*
X1655067D01*
X1652527Y1178051D01*
X1637292Y1190747D02*
X1647449D01*
Y1183130D01*
X1642371Y1185669D01*
X1639831D01*
X1637292Y1183130D01*
Y1178051D01*
X1639831Y1175512D01*
X1644910D01*
X1647449Y1178051D01*
X1622057Y1175512D02*
X1632214D01*
X1622057Y1185669D01*
Y1188208D01*
X1624596Y1190747D01*
X1629675D01*
X1632214Y1188208D01*
X377447Y1505454D02*
X379986Y1507993D01*
X385065D01*
X387604Y1505454D01*
Y1495297D01*
X385065Y1492758D01*
X379986D01*
X377447Y1495297D01*
X372369Y1492758D02*
X367291D01*
X369830D01*
Y1507993D01*
X372369Y1505454D01*
X485905Y1506470D02*
X488445Y1509009D01*
X493523D01*
X496062Y1506470D01*
Y1496313D01*
X493523Y1493774D01*
X488445D01*
X485905Y1496313D01*
X470670Y1493774D02*
X480827D01*
X470670Y1503931D01*
Y1506470D01*
X473209Y1509009D01*
X478288D01*
X480827Y1506470D01*
X591061D02*
X593601Y1509009D01*
X598679D01*
X601218Y1506470D01*
Y1496313D01*
X598679Y1493774D01*
X593601D01*
X591061Y1496313D01*
X585983Y1506470D02*
X583444Y1509009D01*
X578365D01*
X575826Y1506470D01*
Y1503931D01*
X578365Y1501391D01*
X580905D01*
X578365D01*
X575826Y1498852D01*
Y1496313D01*
X578365Y1493774D01*
X583444D01*
X585983Y1496313D01*
X799595Y1506978D02*
X802134Y1509517D01*
X807213D01*
X809752Y1506978D01*
Y1496821D01*
X807213Y1494282D01*
X802134D01*
X799595Y1496821D01*
X784360Y1509517D02*
X794517D01*
Y1501900D01*
X789439Y1504439D01*
X786899D01*
X784360Y1501900D01*
Y1496821D01*
X786899Y1494282D01*
X791978D01*
X794517Y1496821D01*
X693931Y1506470D02*
X696470Y1509009D01*
X701549D01*
X704088Y1506470D01*
Y1496313D01*
X701549Y1493774D01*
X696470D01*
X693931Y1496313D01*
X681235Y1493774D02*
Y1509009D01*
X688853Y1501391D01*
X678696D01*
X1339599Y1507486D02*
X1342139Y1510025D01*
X1347217D01*
X1349756Y1507486D01*
Y1497329D01*
X1347217Y1494790D01*
X1342139D01*
X1339599Y1497329D01*
X1334521Y1494790D02*
X1329443D01*
X1331982D01*
Y1510025D01*
X1334521Y1507486D01*
X1321825D02*
X1319286Y1510025D01*
X1314207D01*
X1311668Y1507486D01*
Y1497329D01*
X1314207Y1494790D01*
X1319286D01*
X1321825Y1497329D01*
Y1507486D01*
X1439675Y1504692D02*
X1442215Y1507231D01*
X1447293D01*
X1449832Y1504692D01*
Y1494535D01*
X1447293Y1491996D01*
X1442215D01*
X1439675Y1494535D01*
X1434597Y1491996D02*
X1429519D01*
X1432058D01*
Y1507231D01*
X1434597Y1504692D01*
X1421901Y1491996D02*
X1416823D01*
X1419362D01*
Y1507231D01*
X1421901Y1504692D01*
X1010923Y1506216D02*
X1013463Y1508755D01*
X1018541D01*
X1021080Y1506216D01*
Y1496059D01*
X1018541Y1493520D01*
X1013463D01*
X1010923Y1496059D01*
X1005845Y1508755D02*
X995688D01*
Y1506216D01*
X1005845Y1496059D01*
Y1493520D01*
X907037Y1505708D02*
X909576Y1508247D01*
X914655D01*
X917194Y1505708D01*
Y1495551D01*
X914655Y1493012D01*
X909576D01*
X907037Y1495551D01*
X891802Y1508247D02*
X896881Y1505708D01*
X901959Y1500629D01*
Y1495551D01*
X899420Y1493012D01*
X894341D01*
X891802Y1495551D01*
Y1498090D01*
X894341Y1500629D01*
X901959D01*
X1115825Y1505708D02*
X1118364Y1508247D01*
X1123443D01*
X1125982Y1505708D01*
Y1495551D01*
X1123443Y1493012D01*
X1118364D01*
X1115825Y1495551D01*
X1110747Y1505708D02*
X1108208Y1508247D01*
X1103129D01*
X1100590Y1505708D01*
Y1503169D01*
X1103129Y1500629D01*
X1100590Y1498090D01*
Y1495551D01*
X1103129Y1493012D01*
X1108208D01*
X1110747Y1495551D01*
Y1498090D01*
X1108208Y1500629D01*
X1110747Y1503169D01*
Y1505708D01*
X1108208Y1500629D02*
X1103129D01*
X1222505Y1505708D02*
X1225044Y1508247D01*
X1230123D01*
X1232662Y1505708D01*
Y1495551D01*
X1230123Y1493012D01*
X1225044D01*
X1222505Y1495551D01*
X1217427D02*
X1214888Y1493012D01*
X1209809D01*
X1207270Y1495551D01*
Y1505708D01*
X1209809Y1508247D01*
X1214888D01*
X1217427Y1505708D01*
Y1503169D01*
X1214888Y1500629D01*
X1207270D01*
M02*
