G04*
G04 #@! TF.GenerationSoftware,Altium Limited,Altium Designer,23.8.1 (32)*
G04*
G04 Layer_Color=8421504*
%FSLAX44Y44*%
%MOMM*%
G71*
G04*
G04 #@! TF.SameCoordinates,938FBF38-D1D7-4F61-89A2-64852554DE34*
G04*
G04*
G04 #@! TF.FilePolarity,Positive*
G04*
G01*
G75*
%ADD13R,1.5000X0.9000*%
D13*
X872500Y543000D02*
D03*
Y510000D02*
D03*
X921500D02*
D03*
Y543000D02*
D03*
X1607500Y228000D02*
D03*
Y195000D02*
D03*
X1656500D02*
D03*
Y228000D02*
D03*
X662500Y1383000D02*
D03*
Y1350000D02*
D03*
X711500D02*
D03*
Y1383000D02*
D03*
X557500Y858000D02*
D03*
Y825000D02*
D03*
X606500D02*
D03*
Y858000D02*
D03*
X501500Y1488000D02*
D03*
Y1455000D02*
D03*
X452500D02*
D03*
Y1488000D02*
D03*
X711500Y543000D02*
D03*
Y510000D02*
D03*
X662500D02*
D03*
Y543000D02*
D03*
X1446500Y1068000D02*
D03*
Y1035000D02*
D03*
X1397500D02*
D03*
Y1068000D02*
D03*
X452500Y333000D02*
D03*
Y300000D02*
D03*
X501500D02*
D03*
Y333000D02*
D03*
X452500Y228000D02*
D03*
Y195000D02*
D03*
X501500D02*
D03*
Y228000D02*
D03*
X347610Y647690D02*
D03*
Y614690D02*
D03*
X396610D02*
D03*
Y647690D02*
D03*
X347610Y753100D02*
D03*
Y720100D02*
D03*
X396610D02*
D03*
Y753100D02*
D03*
X347750Y858500D02*
D03*
Y825500D02*
D03*
X396750D02*
D03*
Y858500D02*
D03*
X347500Y962750D02*
D03*
Y929750D02*
D03*
X396500D02*
D03*
Y962750D02*
D03*
X347610Y1068060D02*
D03*
Y1035060D02*
D03*
X396610D02*
D03*
Y1068060D02*
D03*
X1656500Y333000D02*
D03*
Y300000D02*
D03*
X1607500D02*
D03*
Y333000D02*
D03*
X396610Y332730D02*
D03*
Y299730D02*
D03*
X347610D02*
D03*
Y332730D02*
D03*
X767500Y333000D02*
D03*
Y300000D02*
D03*
X816500D02*
D03*
Y333000D02*
D03*
X1187500Y438000D02*
D03*
Y405000D02*
D03*
X1236500D02*
D03*
Y438000D02*
D03*
X1026500Y1383000D02*
D03*
Y1350000D02*
D03*
X977500D02*
D03*
Y1383000D02*
D03*
X816500Y1383000D02*
D03*
Y1350000D02*
D03*
X767500D02*
D03*
Y1383000D02*
D03*
X1131500Y1383000D02*
D03*
Y1350000D02*
D03*
X1082500D02*
D03*
Y1383000D02*
D03*
X1446500Y1488000D02*
D03*
Y1455000D02*
D03*
X1397500D02*
D03*
Y1488000D02*
D03*
X1656500Y648000D02*
D03*
Y615000D02*
D03*
X1607500D02*
D03*
Y648000D02*
D03*
X1656500Y1488000D02*
D03*
Y1455000D02*
D03*
X1607500D02*
D03*
Y1488000D02*
D03*
X1656500Y1278000D02*
D03*
Y1245000D02*
D03*
X1607500D02*
D03*
Y1278000D02*
D03*
X1656500Y1383000D02*
D03*
Y1350000D02*
D03*
X1607500D02*
D03*
Y1383000D02*
D03*
X1656500Y753000D02*
D03*
Y720000D02*
D03*
X1607500D02*
D03*
Y753000D02*
D03*
X1656500Y438000D02*
D03*
Y405000D02*
D03*
X1607500D02*
D03*
Y438000D02*
D03*
X1656500Y858000D02*
D03*
Y825000D02*
D03*
X1607500D02*
D03*
Y858000D02*
D03*
X1656500Y1068000D02*
D03*
Y1035000D02*
D03*
X1607500D02*
D03*
Y1068000D02*
D03*
X1656500Y543000D02*
D03*
Y510000D02*
D03*
X1607500D02*
D03*
Y543000D02*
D03*
X1656500Y963000D02*
D03*
Y930000D02*
D03*
X1607500D02*
D03*
Y963000D02*
D03*
X1656500Y1173000D02*
D03*
Y1140000D02*
D03*
X1607500D02*
D03*
Y1173000D02*
D03*
X816500Y228000D02*
D03*
Y195000D02*
D03*
X767500D02*
D03*
Y228000D02*
D03*
X711500Y227750D02*
D03*
Y194750D02*
D03*
X662500D02*
D03*
Y227750D02*
D03*
X396500D02*
D03*
Y194750D02*
D03*
X347500D02*
D03*
Y227750D02*
D03*
X606500Y228000D02*
D03*
Y195000D02*
D03*
X557500D02*
D03*
Y228000D02*
D03*
X1551500Y227750D02*
D03*
Y194750D02*
D03*
X1502500D02*
D03*
Y227750D02*
D03*
X1341500Y228000D02*
D03*
Y195000D02*
D03*
X1292500D02*
D03*
Y228000D02*
D03*
X1446500D02*
D03*
Y195000D02*
D03*
X1397500D02*
D03*
Y228000D02*
D03*
X921500D02*
D03*
Y195000D02*
D03*
X872500D02*
D03*
Y228000D02*
D03*
X1026500D02*
D03*
Y195000D02*
D03*
X977500D02*
D03*
Y228000D02*
D03*
X1236500Y228000D02*
D03*
Y195000D02*
D03*
X1187500D02*
D03*
Y228000D02*
D03*
X1131500D02*
D03*
Y195000D02*
D03*
X1082500D02*
D03*
Y228000D02*
D03*
X606500Y438000D02*
D03*
Y405000D02*
D03*
X557500D02*
D03*
Y438000D02*
D03*
X606500Y543000D02*
D03*
Y510000D02*
D03*
X557500D02*
D03*
Y543000D02*
D03*
X606500Y648000D02*
D03*
Y615000D02*
D03*
X557500D02*
D03*
Y648000D02*
D03*
X606500Y753000D02*
D03*
Y720000D02*
D03*
X557500D02*
D03*
Y753000D02*
D03*
X711500Y438000D02*
D03*
Y405000D02*
D03*
X662500D02*
D03*
Y438000D02*
D03*
X501500D02*
D03*
Y405000D02*
D03*
X452500D02*
D03*
Y438000D02*
D03*
X396750Y438500D02*
D03*
Y405500D02*
D03*
X347750D02*
D03*
Y438500D02*
D03*
X501500Y648000D02*
D03*
Y615000D02*
D03*
X452500D02*
D03*
Y648000D02*
D03*
X1551500Y1383000D02*
D03*
Y1350000D02*
D03*
X1502500D02*
D03*
Y1383000D02*
D03*
X396250Y542750D02*
D03*
Y509750D02*
D03*
X347250D02*
D03*
Y542750D02*
D03*
X501500Y543000D02*
D03*
Y510000D02*
D03*
X452500D02*
D03*
Y543000D02*
D03*
X501500Y753000D02*
D03*
Y720000D02*
D03*
X452500D02*
D03*
Y753000D02*
D03*
X501500Y858000D02*
D03*
Y825000D02*
D03*
X452500D02*
D03*
Y858000D02*
D03*
X711500Y648000D02*
D03*
Y615000D02*
D03*
X662500D02*
D03*
Y648000D02*
D03*
X711500Y858000D02*
D03*
Y825000D02*
D03*
X662500D02*
D03*
Y858000D02*
D03*
X711500Y753000D02*
D03*
Y720000D02*
D03*
X662500D02*
D03*
Y753000D02*
D03*
X711500Y333000D02*
D03*
Y300000D02*
D03*
X662500D02*
D03*
Y333000D02*
D03*
X921500D02*
D03*
Y300000D02*
D03*
X872500D02*
D03*
Y333000D02*
D03*
X816500Y438000D02*
D03*
Y405000D02*
D03*
X767500D02*
D03*
Y438000D02*
D03*
X816500Y543000D02*
D03*
Y510000D02*
D03*
X767500D02*
D03*
Y543000D02*
D03*
X921500Y438000D02*
D03*
Y405000D02*
D03*
X872500D02*
D03*
Y438000D02*
D03*
X1026500Y333000D02*
D03*
Y300000D02*
D03*
X977500D02*
D03*
Y333000D02*
D03*
X1026500Y438000D02*
D03*
Y405000D02*
D03*
X977500D02*
D03*
Y438000D02*
D03*
X1026500Y543000D02*
D03*
Y510000D02*
D03*
X977500D02*
D03*
Y543000D02*
D03*
X816500Y648000D02*
D03*
Y615000D02*
D03*
X767500D02*
D03*
Y648000D02*
D03*
X921500Y648000D02*
D03*
Y615000D02*
D03*
X872500D02*
D03*
Y648000D02*
D03*
X816500Y858000D02*
D03*
Y825000D02*
D03*
X767500D02*
D03*
Y858000D02*
D03*
X816500Y753000D02*
D03*
Y720000D02*
D03*
X767500D02*
D03*
Y753000D02*
D03*
X921500Y858000D02*
D03*
Y825000D02*
D03*
X872500D02*
D03*
Y858000D02*
D03*
X921500Y753000D02*
D03*
Y720000D02*
D03*
X872500D02*
D03*
Y753000D02*
D03*
X1026500Y648000D02*
D03*
Y615000D02*
D03*
X977500D02*
D03*
Y648000D02*
D03*
X1131500D02*
D03*
Y615000D02*
D03*
X1082500D02*
D03*
Y648000D02*
D03*
X1026500Y753000D02*
D03*
Y720000D02*
D03*
X977500D02*
D03*
Y753000D02*
D03*
X1026500Y858000D02*
D03*
Y825000D02*
D03*
X977500D02*
D03*
Y858000D02*
D03*
X1131500Y753000D02*
D03*
Y720000D02*
D03*
X1082500D02*
D03*
Y753000D02*
D03*
X1131500Y858000D02*
D03*
Y825000D02*
D03*
X1082500D02*
D03*
Y858000D02*
D03*
X501500Y963000D02*
D03*
Y930000D02*
D03*
X452500D02*
D03*
Y963000D02*
D03*
X501650Y1068050D02*
D03*
Y1035050D02*
D03*
X452650D02*
D03*
Y1068050D02*
D03*
X396250Y1172750D02*
D03*
Y1139750D02*
D03*
X347250D02*
D03*
Y1172750D02*
D03*
X501500Y1173000D02*
D03*
Y1140000D02*
D03*
X452500D02*
D03*
Y1173000D02*
D03*
X606500Y963000D02*
D03*
Y930000D02*
D03*
X557500D02*
D03*
Y963000D02*
D03*
X606500Y1068000D02*
D03*
Y1035000D02*
D03*
X557500D02*
D03*
Y1068000D02*
D03*
X711500Y963000D02*
D03*
Y930000D02*
D03*
X662500D02*
D03*
Y963000D02*
D03*
X711500Y1068000D02*
D03*
Y1035000D02*
D03*
X662500D02*
D03*
Y1068000D02*
D03*
X606500Y1173000D02*
D03*
Y1140000D02*
D03*
X557500D02*
D03*
Y1173000D02*
D03*
X711500D02*
D03*
Y1140000D02*
D03*
X662500D02*
D03*
Y1173000D02*
D03*
X396250Y1278000D02*
D03*
Y1245000D02*
D03*
X347250D02*
D03*
Y1278000D02*
D03*
X396610Y1383020D02*
D03*
Y1350020D02*
D03*
X347610D02*
D03*
Y1383020D02*
D03*
X501500Y1278000D02*
D03*
Y1245000D02*
D03*
X452500D02*
D03*
Y1278000D02*
D03*
X501500Y1383000D02*
D03*
Y1350000D02*
D03*
X452500D02*
D03*
Y1383000D02*
D03*
X606500Y1278000D02*
D03*
Y1245000D02*
D03*
X557500D02*
D03*
Y1278000D02*
D03*
X606500Y1383000D02*
D03*
Y1350000D02*
D03*
X557500D02*
D03*
Y1383000D02*
D03*
X711500Y1278000D02*
D03*
Y1245000D02*
D03*
X662500D02*
D03*
Y1278000D02*
D03*
X816500Y963000D02*
D03*
Y930000D02*
D03*
X767500D02*
D03*
Y963000D02*
D03*
X816500Y1068250D02*
D03*
Y1035250D02*
D03*
X767500D02*
D03*
Y1068250D02*
D03*
X921500Y963000D02*
D03*
Y930000D02*
D03*
X872500D02*
D03*
Y963000D02*
D03*
X921500Y1068000D02*
D03*
Y1035000D02*
D03*
X872500D02*
D03*
Y1068000D02*
D03*
X816500Y1173000D02*
D03*
Y1140000D02*
D03*
X767500D02*
D03*
Y1173000D02*
D03*
X921500D02*
D03*
Y1140000D02*
D03*
X872500D02*
D03*
Y1173000D02*
D03*
X1026500Y963000D02*
D03*
Y930000D02*
D03*
X977500D02*
D03*
Y963000D02*
D03*
X1026500Y1068000D02*
D03*
Y1035000D02*
D03*
X977500D02*
D03*
Y1068000D02*
D03*
X1131500Y963000D02*
D03*
Y930000D02*
D03*
X1082500D02*
D03*
Y963000D02*
D03*
X1131500Y1068000D02*
D03*
Y1035000D02*
D03*
X1082500D02*
D03*
Y1068000D02*
D03*
X1026500Y1173000D02*
D03*
Y1140000D02*
D03*
X977500D02*
D03*
Y1173000D02*
D03*
X1131500D02*
D03*
Y1140000D02*
D03*
X1082500D02*
D03*
Y1173000D02*
D03*
X816500Y1278000D02*
D03*
Y1245000D02*
D03*
X767500D02*
D03*
Y1278000D02*
D03*
X921500Y1278000D02*
D03*
Y1245000D02*
D03*
X872500D02*
D03*
Y1278000D02*
D03*
X921500Y1383000D02*
D03*
Y1350000D02*
D03*
X872500D02*
D03*
Y1383000D02*
D03*
X816500Y1488000D02*
D03*
Y1455000D02*
D03*
X767500D02*
D03*
Y1488000D02*
D03*
X921500D02*
D03*
Y1455000D02*
D03*
X872500D02*
D03*
Y1488000D02*
D03*
X1026500Y1278000D02*
D03*
Y1245000D02*
D03*
X977500D02*
D03*
Y1278000D02*
D03*
X1131500D02*
D03*
Y1245000D02*
D03*
X1082500D02*
D03*
Y1278000D02*
D03*
X1026500Y1488250D02*
D03*
Y1455250D02*
D03*
X977500D02*
D03*
Y1488250D02*
D03*
X1131500Y1488000D02*
D03*
Y1455000D02*
D03*
X1082500D02*
D03*
Y1488000D02*
D03*
X1131500Y333000D02*
D03*
Y300000D02*
D03*
X1082500D02*
D03*
Y333000D02*
D03*
X1236500D02*
D03*
Y300000D02*
D03*
X1187500D02*
D03*
Y333000D02*
D03*
X1131500Y543000D02*
D03*
Y510000D02*
D03*
X1082500D02*
D03*
Y543000D02*
D03*
X1131500Y438000D02*
D03*
Y405000D02*
D03*
X1082500D02*
D03*
Y438000D02*
D03*
X1236500Y543000D02*
D03*
Y510000D02*
D03*
X1187500D02*
D03*
Y543000D02*
D03*
X1341500Y333000D02*
D03*
Y300000D02*
D03*
X1292500D02*
D03*
Y333000D02*
D03*
X1341500Y543000D02*
D03*
Y510000D02*
D03*
X1292500D02*
D03*
Y543000D02*
D03*
X1341500Y438000D02*
D03*
Y405000D02*
D03*
X1292500D02*
D03*
Y438000D02*
D03*
X1236500Y753000D02*
D03*
Y720000D02*
D03*
X1187500D02*
D03*
Y753000D02*
D03*
X1236500Y648000D02*
D03*
Y615000D02*
D03*
X1187500D02*
D03*
Y648000D02*
D03*
X1236500Y963000D02*
D03*
Y930000D02*
D03*
X1187500D02*
D03*
Y963000D02*
D03*
X1236500Y857750D02*
D03*
Y824750D02*
D03*
X1187500D02*
D03*
Y857750D02*
D03*
X1341500Y753000D02*
D03*
Y720000D02*
D03*
X1292500D02*
D03*
Y753000D02*
D03*
X1341500Y648000D02*
D03*
Y615000D02*
D03*
X1292500D02*
D03*
Y648000D02*
D03*
X1341500Y963000D02*
D03*
Y930000D02*
D03*
X1292500D02*
D03*
Y963000D02*
D03*
X1341500Y858000D02*
D03*
Y825000D02*
D03*
X1292500D02*
D03*
Y858000D02*
D03*
X1446500Y963000D02*
D03*
Y930000D02*
D03*
X1397500D02*
D03*
Y963000D02*
D03*
X1446500Y858000D02*
D03*
Y825000D02*
D03*
X1397500D02*
D03*
Y858000D02*
D03*
X1446500Y333000D02*
D03*
Y300000D02*
D03*
X1397500D02*
D03*
Y333000D02*
D03*
X1551500D02*
D03*
Y300000D02*
D03*
X1502500D02*
D03*
Y333000D02*
D03*
X1446500Y438000D02*
D03*
Y405000D02*
D03*
X1397500D02*
D03*
Y438000D02*
D03*
X1446500Y543000D02*
D03*
Y510000D02*
D03*
X1397500D02*
D03*
Y543000D02*
D03*
X1551500Y438000D02*
D03*
Y405000D02*
D03*
X1502500D02*
D03*
Y438000D02*
D03*
X1548750Y542750D02*
D03*
Y509750D02*
D03*
X1499750D02*
D03*
Y542750D02*
D03*
X1446500Y753000D02*
D03*
Y720000D02*
D03*
X1397500D02*
D03*
Y753000D02*
D03*
X1446500Y648000D02*
D03*
Y615000D02*
D03*
X1397500D02*
D03*
Y648000D02*
D03*
X1551500Y753000D02*
D03*
Y720000D02*
D03*
X1502500D02*
D03*
Y753000D02*
D03*
X1551500Y648000D02*
D03*
Y615000D02*
D03*
X1502500D02*
D03*
Y648000D02*
D03*
X1551500Y858000D02*
D03*
Y825000D02*
D03*
X1502500D02*
D03*
Y858000D02*
D03*
X1551500Y963000D02*
D03*
Y930000D02*
D03*
X1502500D02*
D03*
Y963000D02*
D03*
X1236500Y1068000D02*
D03*
Y1035000D02*
D03*
X1187500D02*
D03*
Y1068000D02*
D03*
X1341500Y1068000D02*
D03*
Y1035000D02*
D03*
X1292500D02*
D03*
Y1068000D02*
D03*
X1236500Y1173000D02*
D03*
Y1140000D02*
D03*
X1187500D02*
D03*
Y1173000D02*
D03*
X1236500Y1278000D02*
D03*
Y1245000D02*
D03*
X1187500D02*
D03*
Y1278000D02*
D03*
X1341500Y1173000D02*
D03*
Y1140000D02*
D03*
X1292500D02*
D03*
Y1173000D02*
D03*
X1341500Y1278000D02*
D03*
Y1245000D02*
D03*
X1292500D02*
D03*
Y1278000D02*
D03*
X1551500Y1068000D02*
D03*
Y1035000D02*
D03*
X1502500D02*
D03*
Y1068000D02*
D03*
X1446500Y1173000D02*
D03*
Y1140000D02*
D03*
X1397500D02*
D03*
Y1173000D02*
D03*
X1446500Y1278000D02*
D03*
Y1245000D02*
D03*
X1397500D02*
D03*
Y1278000D02*
D03*
X1551500Y1173000D02*
D03*
Y1140000D02*
D03*
X1502500D02*
D03*
Y1173000D02*
D03*
X1551500Y1278000D02*
D03*
Y1245000D02*
D03*
X1502500D02*
D03*
Y1278000D02*
D03*
X1236500Y1383000D02*
D03*
Y1350000D02*
D03*
X1187500D02*
D03*
Y1383000D02*
D03*
X1341500D02*
D03*
Y1350000D02*
D03*
X1292500D02*
D03*
Y1383000D02*
D03*
X1236500Y1488000D02*
D03*
Y1455000D02*
D03*
X1187500D02*
D03*
Y1488000D02*
D03*
X1341500Y1488250D02*
D03*
Y1455250D02*
D03*
X1292500D02*
D03*
Y1488250D02*
D03*
X1446500Y1383000D02*
D03*
Y1350000D02*
D03*
X1397500D02*
D03*
Y1383000D02*
D03*
X1551500Y1488000D02*
D03*
Y1455000D02*
D03*
X1502500D02*
D03*
Y1488000D02*
D03*
X606500Y333000D02*
D03*
Y300000D02*
D03*
X557500D02*
D03*
Y333000D02*
D03*
X347500Y1488000D02*
D03*
Y1455000D02*
D03*
X396500D02*
D03*
Y1488000D02*
D03*
X557500Y1488000D02*
D03*
Y1455000D02*
D03*
X606500D02*
D03*
Y1488000D02*
D03*
X662500Y1488000D02*
D03*
Y1455000D02*
D03*
X711500D02*
D03*
Y1488000D02*
D03*
M02*
