G04*
G04 #@! TF.GenerationSoftware,Altium Limited,Altium Designer,23.8.1 (32)*
G04*
G04 Layer_Color=128*
%FSLAX44Y44*%
%MOMM*%
G71*
G04*
G04 #@! TF.SameCoordinates,938FBF38-D1D7-4F61-89A2-64852554DE34*
G04*
G04*
G04 #@! TF.FilePolarity,Positive*
G04*
G01*
G75*
%ADD19R,1.3500X1.1000*%
D19*
X1632000Y327500D02*
D03*
Y313500D02*
D03*
X378750Y221500D02*
D03*
Y207500D02*
D03*
X584250Y1375250D02*
D03*
Y1361250D02*
D03*
X688000Y1375750D02*
D03*
Y1361750D02*
D03*
X1632000Y850000D02*
D03*
Y836000D02*
D03*
X1525750Y845500D02*
D03*
Y831500D02*
D03*
X1630500Y639500D02*
D03*
Y625500D02*
D03*
X1529000Y639500D02*
D03*
Y625500D02*
D03*
X1527500Y742000D02*
D03*
Y728000D02*
D03*
X1419250Y744500D02*
D03*
Y730500D02*
D03*
X1626500Y533000D02*
D03*
Y519000D02*
D03*
X1523500Y535000D02*
D03*
Y521000D02*
D03*
X1319750Y850000D02*
D03*
Y836000D02*
D03*
X1423250Y844750D02*
D03*
Y830750D02*
D03*
X1212000Y849000D02*
D03*
Y835000D02*
D03*
X1107750Y844750D02*
D03*
Y830750D02*
D03*
X1002500Y846500D02*
D03*
Y832500D02*
D03*
X901000Y848250D02*
D03*
Y834250D02*
D03*
X796500Y846500D02*
D03*
Y832500D02*
D03*
X482500Y742000D02*
D03*
Y728000D02*
D03*
X374500Y743250D02*
D03*
Y729250D02*
D03*
X479750Y1266500D02*
D03*
Y1252500D02*
D03*
X480000Y1059250D02*
D03*
Y1045250D02*
D03*
X480750Y953750D02*
D03*
Y939750D02*
D03*
X374000Y851750D02*
D03*
Y837750D02*
D03*
X483500Y849500D02*
D03*
Y835500D02*
D03*
X476750Y1374000D02*
D03*
Y1360000D02*
D03*
X481500Y1167000D02*
D03*
Y1153000D02*
D03*
X378500Y1164250D02*
D03*
Y1150250D02*
D03*
X692500Y639500D02*
D03*
Y625500D02*
D03*
X1320250Y637500D02*
D03*
Y623500D02*
D03*
X1211500Y638500D02*
D03*
Y624500D02*
D03*
X587500Y639750D02*
D03*
Y625750D02*
D03*
X1422750Y637500D02*
D03*
Y623500D02*
D03*
X1628750Y743000D02*
D03*
Y729000D02*
D03*
X1317250Y743000D02*
D03*
Y729000D02*
D03*
X1004750Y745500D02*
D03*
Y731500D02*
D03*
X899000Y739250D02*
D03*
Y725250D02*
D03*
X1215250Y743750D02*
D03*
Y729750D02*
D03*
X1106750Y742750D02*
D03*
Y728750D02*
D03*
X588250Y744500D02*
D03*
Y730500D02*
D03*
X692250Y746250D02*
D03*
Y732250D02*
D03*
X796000Y741000D02*
D03*
Y727000D02*
D03*
X693250Y428500D02*
D03*
Y414500D02*
D03*
X587500Y428500D02*
D03*
Y414500D02*
D03*
X1420500Y533000D02*
D03*
Y519000D02*
D03*
X1214000Y530500D02*
D03*
Y516500D02*
D03*
X1107750Y531250D02*
D03*
Y517250D02*
D03*
X1109000Y639500D02*
D03*
Y625500D02*
D03*
X1318500Y533500D02*
D03*
Y519500D02*
D03*
X1005500Y638500D02*
D03*
Y624500D02*
D03*
X1002250Y530500D02*
D03*
Y516500D02*
D03*
X898750Y531750D02*
D03*
Y517750D02*
D03*
X584500Y534750D02*
D03*
Y520750D02*
D03*
X799000Y535000D02*
D03*
Y521000D02*
D03*
X903000Y637750D02*
D03*
Y623750D02*
D03*
X798500Y639500D02*
D03*
Y625500D02*
D03*
X795250Y428250D02*
D03*
Y414250D02*
D03*
X692000Y533750D02*
D03*
Y519750D02*
D03*
X900250Y427750D02*
D03*
Y413750D02*
D03*
X1005250Y429000D02*
D03*
Y415000D02*
D03*
X374250Y533500D02*
D03*
Y519500D02*
D03*
X373500Y638500D02*
D03*
Y624500D02*
D03*
X379250Y324750D02*
D03*
Y310750D02*
D03*
X481500Y323500D02*
D03*
Y309500D02*
D03*
X381500Y429500D02*
D03*
Y415500D02*
D03*
X483000Y429750D02*
D03*
Y415750D02*
D03*
X377000Y951000D02*
D03*
Y937000D02*
D03*
X481250Y217000D02*
D03*
Y203000D02*
D03*
X372750Y1054500D02*
D03*
Y1040500D02*
D03*
X373250Y1374500D02*
D03*
Y1360500D02*
D03*
X377000Y1267250D02*
D03*
Y1253250D02*
D03*
X478750Y534000D02*
D03*
Y520000D02*
D03*
X484000Y639000D02*
D03*
Y625000D02*
D03*
X590000Y952750D02*
D03*
Y938750D02*
D03*
X686750Y218250D02*
D03*
Y204250D02*
D03*
X691000Y322750D02*
D03*
Y308750D02*
D03*
X583500Y218000D02*
D03*
Y204000D02*
D03*
X585750Y1055750D02*
D03*
Y1041750D02*
D03*
X588500Y1162500D02*
D03*
Y1148500D02*
D03*
X585000Y1266500D02*
D03*
Y1252500D02*
D03*
X587750Y848500D02*
D03*
Y834500D02*
D03*
X689500Y849750D02*
D03*
Y835750D02*
D03*
X586250Y321750D02*
D03*
Y307750D02*
D03*
X1629000Y219750D02*
D03*
Y205750D02*
D03*
X1526000Y218000D02*
D03*
Y204000D02*
D03*
X1626750Y429500D02*
D03*
Y415500D02*
D03*
X1525000Y425750D02*
D03*
Y411750D02*
D03*
X1422250Y429500D02*
D03*
Y415500D02*
D03*
X1315000Y217250D02*
D03*
Y203250D02*
D03*
X1317250Y324750D02*
D03*
Y310750D02*
D03*
X1419750Y220500D02*
D03*
Y206500D02*
D03*
X1209250Y221750D02*
D03*
Y207750D02*
D03*
X1529250Y327750D02*
D03*
Y313750D02*
D03*
X1427000Y325500D02*
D03*
Y311500D02*
D03*
X1209250Y323500D02*
D03*
Y309500D02*
D03*
X1108500Y326250D02*
D03*
Y312250D02*
D03*
X1316500Y428250D02*
D03*
Y414250D02*
D03*
X1108750Y427000D02*
D03*
Y413000D02*
D03*
X1209750Y429750D02*
D03*
Y415750D02*
D03*
X1004750Y323000D02*
D03*
Y309000D02*
D03*
X797500Y324750D02*
D03*
Y310750D02*
D03*
X900000Y324750D02*
D03*
Y310750D02*
D03*
X791750Y216000D02*
D03*
Y202000D02*
D03*
X898000Y214250D02*
D03*
Y200250D02*
D03*
X1109500Y218500D02*
D03*
Y204500D02*
D03*
X1007750Y218750D02*
D03*
Y204750D02*
D03*
X1526250Y1163750D02*
D03*
Y1149750D02*
D03*
X1525000Y1059000D02*
D03*
Y1045000D02*
D03*
X1314750Y1056500D02*
D03*
Y1042500D02*
D03*
X1316250Y1373250D02*
D03*
Y1359250D02*
D03*
X1211250Y1372000D02*
D03*
Y1358000D02*
D03*
X1105250Y1370750D02*
D03*
Y1356750D02*
D03*
X1212750Y1266500D02*
D03*
Y1252500D02*
D03*
X1105000Y1266500D02*
D03*
Y1252500D02*
D03*
X1002250Y1264000D02*
D03*
Y1250000D02*
D03*
X895750Y1267250D02*
D03*
Y1253250D02*
D03*
X1005250Y1375750D02*
D03*
Y1361750D02*
D03*
X899000Y1373250D02*
D03*
Y1359250D02*
D03*
X793000Y1374500D02*
D03*
Y1360500D02*
D03*
X1421750Y1161250D02*
D03*
Y1147250D02*
D03*
X688250Y1061500D02*
D03*
Y1047500D02*
D03*
X1318250Y1267000D02*
D03*
Y1253000D02*
D03*
X794250Y1265250D02*
D03*
Y1251250D02*
D03*
X689000Y1271500D02*
D03*
Y1257500D02*
D03*
X692750Y1164250D02*
D03*
Y1150250D02*
D03*
X791750Y1163000D02*
D03*
Y1149000D02*
D03*
X1316250Y1163750D02*
D03*
Y1149750D02*
D03*
X1209500Y1163250D02*
D03*
Y1149250D02*
D03*
X1004250Y1162500D02*
D03*
Y1148500D02*
D03*
X1107250Y1165750D02*
D03*
Y1151750D02*
D03*
X901250Y1165750D02*
D03*
Y1151750D02*
D03*
X1525500Y953750D02*
D03*
Y939750D02*
D03*
X1421750Y952750D02*
D03*
Y938750D02*
D03*
X1631000Y1061750D02*
D03*
Y1047750D02*
D03*
X1628500Y954750D02*
D03*
Y940750D02*
D03*
X1420750Y1060750D02*
D03*
Y1046750D02*
D03*
X1316750Y952000D02*
D03*
Y938000D02*
D03*
X1215750Y952750D02*
D03*
Y938750D02*
D03*
X1109250Y951000D02*
D03*
Y937000D02*
D03*
X1005500Y951000D02*
D03*
Y937000D02*
D03*
X898750Y949250D02*
D03*
Y935250D02*
D03*
X790000Y953750D02*
D03*
Y939750D02*
D03*
X692000Y952000D02*
D03*
Y938000D02*
D03*
X1214750Y1053750D02*
D03*
Y1039750D02*
D03*
X1107000Y1054750D02*
D03*
Y1040750D02*
D03*
X900250Y1058250D02*
D03*
Y1044250D02*
D03*
X1003750Y1057250D02*
D03*
Y1043250D02*
D03*
X795250Y1054500D02*
D03*
Y1040500D02*
D03*
X1631250Y1479500D02*
D03*
Y1465500D02*
D03*
X1526000Y1479500D02*
D03*
Y1465500D02*
D03*
X1633750Y1373250D02*
D03*
Y1359250D02*
D03*
X1527500Y1370750D02*
D03*
Y1356750D02*
D03*
X1523500Y1267750D02*
D03*
Y1253750D02*
D03*
X1422000Y1269000D02*
D03*
Y1255000D02*
D03*
X1422500Y1371250D02*
D03*
Y1357250D02*
D03*
X1632500Y1268500D02*
D03*
Y1254500D02*
D03*
X1628250Y1161250D02*
D03*
Y1147250D02*
D03*
X373500Y1478500D02*
D03*
Y1464500D02*
D03*
X477000Y1479500D02*
D03*
Y1465500D02*
D03*
X582000Y1479500D02*
D03*
Y1465500D02*
D03*
X790500Y1480000D02*
D03*
Y1466000D02*
D03*
X685000Y1479500D02*
D03*
Y1465500D02*
D03*
X1318000Y1480500D02*
D03*
Y1466500D02*
D03*
X1423000Y1477750D02*
D03*
Y1463750D02*
D03*
X1002000Y1479250D02*
D03*
Y1465250D02*
D03*
X898000Y1478750D02*
D03*
Y1464750D02*
D03*
X1106750Y1478750D02*
D03*
Y1464750D02*
D03*
X1213500Y1478750D02*
D03*
Y1464750D02*
D03*
M02*
